<svg version="1.1" xmlns="http://www.w3.org/2000/svg" viewBox="-375.50000100000005 -385.64640408174296 751.0000020000001 777.8233615502852" fill="none" stroke="black" stroke-width="0.6%" vector-effect="non-scaling-stroke">
    <path d="M -349.47196 228.88925 A 361.8 158.95009 180 0 0 361.8 187.74994" />
    <path d="M -361.8 187.74994 A 361.8 158.95009 180 0 0 -349.47196 228.88925" />
    <path d="M -349.47196 218.10935 A 361.8 158.95009 360 0 1 -361.8 176.97004 A 361.8 158.95009 360 0 1 -360.8 165.16028" />
    <path d="M -285.8 79.5042 A 361.8 158.95009 360 0 1 -259.36677 66.15039" />
    <path d="M 259.36677 66.15039 A 361.8 158.95009 360 0 1 285.8 79.5042" />
    <path d="M 360.8 165.16028 A 361.8 158.95009 360 0 1 361.8 176.97004 A 361.8 158.95009 360 0 1 -349.47196 218.10935" />
    <path d="M -259.36677 102.22196 A 324.3 142.47517 180 0 0 -278.81678 114.98561" />
    <path d="M -156 62.84185 A 324.3 142.47517 180 0 0 -197.84848 74.86103" />
    <path d="M 197.84848 74.86103 A 324.3 142.47517 180 0 0 156 62.84185" />
    <path d="M 278.81678 114.98561 A 324.3 142.47517 180 0 0 259.36677 102.22196" />
    <path d="M -313.24975 213.84533 A 324.3 142.47517 360 0 1 -324.24449 179.60603 L -360.8 179.60603 L -360.8 64.81094" />
    <path d="M -285.74855 109.59566 A 324.3 142.47517 360 0 1 -259.36677 91.44206" />
    <path d="M -197.84848 64.08113 A 324.3 142.47517 360 0 1 -173.95442 56.72612" />
    <path d="M 173.95442 56.72612 A 324.3 142.47517 360 0 1 197.84848 64.08113" />
    <path d="M 259.36677 91.44206 A 324.3 142.47517 360 0 1 285.74855 109.59566" />
    <path d="M 360.8 179.60603 L 324.24449 179.60603 A 324.3 142.47517 360 0 1 259.36677 262.49802" />
    <path d="M 259.36677 287.19015 L 250.88149 290.918 L 250.88149 167.52917" />
    <path d="M 250.88149 290.918 L 225.03284 279.56188 A 324.3 142.47517 360 0 1 6 319.42082" />
    <path d="M 6 335.4808 L -6 335.4808 L -6 211.92941" />
    <path d="M -6 319.42082 A 324.3 142.47517 360 0 1 -225.03284 279.56188 L -250.88149 290.918 L -259.36677 287.19015 L -259.36677 163.82083" />
    <path d="M -259.36677 262.49802 A 324.3 142.47517 360 0 1 -313.24975 213.84533" />
    <path d="M -360.8 235.30218 L -345.23011 235.30218" />
    <path d="M -295.87386 235.30218 L -285.8 235.30218 L -285.8 150.46702" />
    <path d="M -285.8 109.55352 L -285.8 14.81994" />
    <path d="M -285.8 -26.09356 L -285.8 -90.41081" />
    <path d="M -360.8 -90.78982 L -360.8 -152.63865" />
    <path d="M -324.24449 -90.78982 L -360.8 -90.78982" />
    <path d="M -360.8 44.85727 L -360.8 -70.83614" />
    <path d="M -324.24449 44.85727 L -360.8 44.85727" />
    <path d="M -360.8 235.30218 L -360.8 199.5597" />
    <path d="M 360.8 235.30218 L 360.8 199.5597" />
    <path d="M 285.8 235.30218 L 295.87386 235.30218" />
    <path d="M 345.23011 235.30218 L 360.8 235.30218" />
    <path d="M 360.8 179.60603 L 360.8 64.81094" />
    <path d="M 360.8 44.85727 L 324.24449 44.85727 A 324.3 142.47517 360 0 1 259.36677 127.74926" />
    <path d="M 360.8 44.85727 L 360.8 -70.83614" />
    <path d="M 360.8 -90.78982 L 324.24449 -90.78982 A 324.3 142.47517 360 0 1 259.36677 -7.89783" />
    <path d="M 360.8 -90.78982 L 360.8 -152.63865" />
    <path d="M 285.8 235.30218 L 285.8 150.46702" />
    <path d="M 285.8 109.55352 L 285.8 14.81994" />
    <path d="M 285.8 -26.09356 L 285.8 -90.41081" />
    <path d="M 259.36677 16.7943 L 259.36677 -78.04936" />
    <path d="M 259.36677 152.44139 L 259.36677 28.17374" />
    <path d="M 259.36677 287.19015 L 259.36677 163.82083" />
    <path d="M 259.36677 342.8863 L 259.36677 298.56959" />
    <path d="M 250.88149 346.61415 L 259.36677 342.8863" />
    <path d="M 250.88149 346.61415 L 250.88149 302.27793" />
    <path d="M 197.84848 323.31509 L 250.88149 346.61415" />
    <path d="M 250.88149 156.16924 L 225.03284 144.81312 A 324.3 142.47517 360 0 1 6 184.67206" />
    <path d="M 250.88149 156.16924 L 250.88149 31.88208" />
    <path d="M 250.88149 20.52215 L 225.03284 9.16603 A 324.3 142.47517 360 0 1 6 49.02497" />
    <path d="M 250.88149 20.52215 L 250.88149 -74.57953" />
    <path d="M 197.84848 323.31509 L 197.84848 320.82835" />
    <path d="M 197.84848 289.85895 L 197.84848 186.07959" />
    <path d="M 197.84848 155.11018 L 197.84848 50.43251" />
    <path d="M 197.84848 19.4631 L 197.84848 -57.03809" />
    <path d="M 6 65.08495 L 6 -32.22471" />
    <path d="M 6 200.73204 L 6 76.28233" />
    <path d="M 6 335.4808 L 6 211.92941" />
    <path d="M 6 391.17696 L 6 346.67818" />
    <path d="M -6 391.17696 L 6 391.17696" />
    <path d="M -6 391.17696 L -6 346.67818" />
    <path d="M -6 200.73204 L -6 76.28233" />
    <path d="M -6 65.08495 L -6 -32.22471" />
    <path d="M -250.88149 346.61415 L -197.84848 323.31509 L -197.84848 320.82835" />
    <path d="M -197.84848 289.85895 L -197.84848 186.07959" />
    <path d="M -197.84848 155.11018 L -197.84848 50.43251" />
    <path d="M -197.84848 19.4631 L -197.84848 -57.03809" />
    <path d="M -250.88149 20.52215 L -250.88149 -74.57953" />
    <path d="M -225.03284 9.16603 L -250.88149 20.52215 L -259.36677 16.7943 L -259.36677 -78.04936" />
    <path d="M -250.88149 156.16924 L -250.88149 31.88208" />
    <path d="M -225.03284 144.81312 L -250.88149 156.16924 L -259.36677 152.44139 L -259.36677 28.17374" />
    <path d="M -250.88149 290.918 L -250.88149 167.52917" />
    <path d="M -250.88149 346.61415 L -250.88149 302.27793" />
    <path d="M -259.36677 342.8863 L -250.88149 346.61415" />
    <path d="M -259.36677 342.8863 L -259.36677 298.56959" />
    <path d="M -115.07593 -40.16361 A 320.5 140.80571 180 0 0 -6 -30.79906" />
    <path d="M 6 -30.79906 A 320.5 140.80571 180 0 0 115.07593 -40.16361" />
    <path d="M -374.5 -196.73319 A 374.5 164.5296 180 0 0 374.5 -196.73319" />
    <path d="M -349.47196 -52.2865 A 361.8 158.95009 360 0 1 -361.8 -93.42581 L -361.8 -82.64591 A 361.8 158.95009 180 0 0 -349.47196 -41.5066 A 361.8 158.95009 180 0 0 361.8 -82.64591" />
    <path d="M -361.8 -93.42581 A 361.8 158.95009 360 0 1 -360.8 -105.23557" />
    <path d="M 360.8 -105.23557 A 361.8 158.95009 360 0 1 361.8 -93.42581 L 361.8 -82.64591" />
    <path d="M 361.8 -93.42581 A 361.8 158.95009 360 0 1 -349.47196 -52.2865" />
    <path d="M -313.24975 -56.55052 A 324.3 142.47517 360 0 1 -324.24449 -90.78982" />
    <path d="M 259.36677 16.7943 L 250.88149 20.52215" />
    <path d="M 6 65.08495 L -6 65.08495" />
    <path d="M -6 49.02497 A 324.3 142.47517 360 0 1 -225.03284 9.16603" />
    <path d="M -259.36677 -7.89783 A 324.3 142.47517 360 0 1 -313.24975 -56.55052" />
    <path d="M -349.47196 83.36059 A 361.8 158.95009 360 0 1 -361.8 42.22128 L -361.8 53.00118 A 361.8 158.95009 180 0 0 -349.47196 94.14049 A 361.8 158.95009 180 0 0 361.8 53.00118" />
    <path d="M -361.8 42.22128 A 361.8 158.95009 360 0 1 -360.8 30.41151" />
    <path d="M -285.8 -55.24456 A 361.8 158.95009 360 0 1 -259.36677 -68.59837" />
    <path d="M 259.36677 -68.59837 A 361.8 158.95009 360 0 1 285.8 -55.24456" />
    <path d="M 360.8 30.41151 A 361.8 158.95009 360 0 1 361.8 42.22128 L 361.8 53.00118" />
    <path d="M 361.8 42.22128 A 361.8 158.95009 360 0 1 -349.47196 83.36059" />
    <path d="M -313.24975 79.09657 A 324.3 142.47517 360 0 1 -324.24449 44.85727" />
    <path d="M -285.1975 -25.60226 A 324.3 142.47517 360 0 1 -259.36677 -43.3067" />
    <path d="M 259.36677 -43.3067 A 324.3 142.47517 360 0 1 285.1975 -25.60226" />
    <path d="M 259.36677 152.44139 L 250.88149 156.16924" />
    <path d="M 6 200.73204 L -6 200.73204" />
    <path d="M -6 184.67206 A 324.3 142.47517 360 0 1 -225.03284 144.81312" />
    <path d="M -259.36677 127.74926 A 324.3 142.47517 360 0 1 -313.24975 79.09657" />
    <path d="M -259.36677 -32.5268 A 324.3 142.47517 180 0 0 -278.20692 -20.21231" />
    <path d="M 278.20692 -20.21231 A 324.3 142.47517 180 0 0 259.36677 -32.5268" />
    <path d="M 315.90653 -295.87585 A 374.5 164.5296 360 0 1 374.5 -207.51309 L 374.5 -196.73319" />
    <path d="M 374.5 -207.51309 A 374.5 164.5296 360 0 1 -374.5 -207.51309 L -374.5 -196.73319" />
    <path d="M -374.5 -207.51309 A 374.5 164.5296 360 0 1 -315.90653 -295.87585" />
    <path d="M 281.0122 -139.80416 A 320.5 140.80571 360 0 1 -281.0122 -139.80416" />
    <path d="M 347.98 -229.97122 A 347.98 152.87853 360 0 1 -347.98 -229.97122" />
    <path d="M -246.05902 -339.86932 A 347.98 152.87853 360 0 1 347.98 -231.76787 L 347.98 -229.97122" />
    <path d="M 347.98 -231.76787 A 347.98 152.87853 360 0 1 -347.98 -231.76787 L -347.98 -229.97122" />
    <path d="M -347.98 -231.76787 A 347.98 152.87853 360 0 1 -246.05902 -339.86932" />
    <path d="M -320.5 -231.76787 A 320.5 140.80571 180 0 0 320.5 -231.76787" />
    <path d="M -226.62772 -332.23086 A 320.5 140.80571 360 0 1 320.5 -232.66619 L 320.5 -231.76787" />
    <path d="M 320.5 -232.66619 A 320.5 140.80571 360 0 1 -320.5 -232.66619 L -320.5 -231.76787" />
    <path d="M -320.5 -232.66619 A 320.5 140.80571 360 0 1 -226.62772 -332.23086" />
    <path d="M 135.59357 -43.36649 A 156 68.5357 360 0 1 6 -8.77097" />
    <path d="M -6 -8.77097 A 156 68.5357 360 0 1 -135.59357 -43.36649" />
    <path d="M -156 210.20807 A 156 68.5357 180 0 0 -6 278.69305" />
    <path d="M 6 278.69305 A 156 68.5357 180 0 0 156 210.20807" />
    <path d="M -361.8 176.97004 L -361.8 187.74994" />
    <path d="M 361.8 176.97004 L 361.8 187.74994" />
    <path d="M -156 -47.15763 L -156 31.48229" />
    <path d="M -156 60.76954 L -156 167.12937" />
    <path d="M -156 196.41663 L -156 210.20807" />
    <path d="M 156 -47.15763 L 156 31.48229" />
    <path d="M 156 60.76954 L 156 167.12937" />
    <path d="M 156 196.41663 L 156 210.20807" />
</svg>