<svg version="1.1" xmlns="http://www.w3.org/2000/svg" viewBox="-375.5000010000001 -386.12676654151574 751.0000020000002 764.1531552004259" fill="none" stroke="black" stroke-width="0.6%" vector-effect="non-scaling-stroke">
    <path d="M -300.16701 -117.56682 A 320.5 137.48838 180 0 0 -259.36677 -84.98978" />
    <path d="M -222.34537 -66.7361 A 320.5 137.48838 180 0 0 -6 -28.29376" />
    <path d="M 6 -28.29376 A 320.5 137.48838 180 0 0 222.34537 -66.7361" />
    <path d="M 259.36677 -84.98978 A 320.5 137.48838 180 0 0 300.16701 -117.56682" />
    <path d="M 48.02416 -29.8219 A 156 66.92102 360 0 1 6 -26.62145" />
    <path d="M -6 -26.62145 A 156 66.92102 360 0 1 -48.02416 -29.8219" />
    <path d="M -285.8 220.72411 L -285.8 132.6571" />
    <path d="M -285.8 92.39367 L -285.8 -3.74325" />
    <path d="M -285.8 -44.00667 L -285.8 -103.53568" />
    <path d="M -360.8 220.72411 L -349.3 220.72411" />
    <path d="M -296.3 211.69097 L -303.03603 211.69097" />
    <path d="M -294.14847 220.72411 L -285.8 220.72411" />
    <path d="M -360.8 -107.17871 L -360.8 -170.57797" />
    <path d="M -324.24449 -107.17871 L -360.8 -107.17871" />
    <path d="M -360.8 29.22164 L -360.8 -87.38131" />
    <path d="M -324.24449 29.22164 L -360.8 29.22164" />
    <path d="M -360.8 164.71867 L -360.8 49.01904" />
    <path d="M -324.24449 164.71867 L -360.8 164.71867" />
    <path d="M -360.8 220.72411 L -360.8 184.51608" />
    <path d="M -259.36677 325.77359 L -259.36677 281.19333" />
    <path d="M -259.36677 269.76815 L -259.36677 145.69629" />
    <path d="M -259.36677 134.27111 L -259.36677 9.29594" />
    <path d="M -259.36677 -2.12923 L -259.36677 -97.74597" />
    <path d="M -197.84848 306.66347 L -197.84848 302.92768" />
    <path d="M -197.84848 272.37407 L -197.84848 167.43065" />
    <path d="M -197.84848 136.87704 L -197.84848 31.0303" />
    <path d="M -197.84848 0.47669 L -197.84848 -57.59339" />
    <path d="M -250.88149 329.41361 L -242.74976 325.92526 L -242.74976 316.89212 L -238.50712 318.71213 L -238.36582 318.76557 A 1.5 0.64347 180 0 0 -236.3858 318.71213 L -201.03046 303.54537 A 1.5 0.64347 180 0 0 -200.59112 303.09037 L -200.59112 321.15664" />
    <path d="M -205.2731 300.81535 L -242.74976 316.89212" />
    <path d="M -200.59112 307.84001 L -197.84848 306.66347" />
    <path d="M -222.34537 -84.35958 L -222.34537 -66.7361" />
    <path d="M -250.88149 1.51079 L -250.88149 -94.35789" />
    <path d="M -225.03284 -9.57779 L -250.88149 1.51079 L -259.36677 -2.12923" />
    <path d="M -250.88149 137.91114 L -250.88149 12.91691" />
    <path d="M -225.03284 126.82256 L -250.88149 137.91114 L -259.36677 134.27111" />
    <path d="M -250.88149 273.40817 L -250.88149 149.31726" />
    <path d="M -225.03284 262.3196 L -250.88149 273.40817 L -259.36677 269.76815" />
    <path d="M -250.88149 329.41361 L -250.88149 284.8143" />
    <path d="M -6 372.92653 L -6 328.16849" />
    <path d="M -6 316.92109 L -6 192.67146" />
    <path d="M -6 181.42406 L -6 56.27111" />
    <path d="M -6 45.02371 L -6 -53.00093" />
    <path d="M 6 45.02371 L 6 -53.00093" />
    <path d="M 6 181.42406 L 6 56.27111" />
    <path d="M 6 316.92109 L 6 192.67146" />
    <path d="M 6 372.92653 L 6 328.16849" />
    <path d="M 222.34537 -84.35958 L 222.34537 -66.7361" />
    <path d="M 197.84848 306.66347 L 200.59112 307.84001" />
    <path d="M 242.74976 316.89212 L 205.2731 300.81535 L 201.03046 302.63536 L 200.90589 302.69598 A 1.5 0.64347 180 0 0 200.59112 303.09037 L 200.59112 321.15664 A 1.5 0.64347 180 0 0 201.03046 321.61164 L 201.03046 303.54537 L 236.3858 318.71213 A 1.5 0.64347 180 0 0 238.43842 318.73981 L 238.50712 318.71213 L 242.74976 316.89212 L 242.74976 325.92526 L 250.88149 329.41361 L 250.88149 284.8143" />
    <path d="M 250.88149 273.40817 L 225.03284 262.3196 A 324.3 139.1185 0 0 1 6 301.23948" />
    <path d="M 250.88149 273.40817 L 250.88149 149.31726" />
    <path d="M 250.88149 137.91114 L 225.03284 126.82256 A 324.3 139.1185 0 0 1 6 165.74244" />
    <path d="M 250.88149 137.91114 L 250.88149 12.91691" />
    <path d="M 250.88149 1.51079 L 225.03284 -9.57779 A 324.3 139.1185 0 0 1 6 29.34209" />
    <path d="M 250.88149 1.51079 L 250.88149 -94.35789" />
    <path d="M 197.84848 306.66347 L 197.84848 302.92768" />
    <path d="M 197.84848 272.37407 L 197.84848 167.43065" />
    <path d="M 197.84848 136.87704 L 197.84848 31.0303" />
    <path d="M 197.84848 0.47669 L 197.84848 -57.59339" />
    <path d="M 259.36677 -2.12923 L 259.36677 -97.74597" />
    <path d="M 259.36677 134.27111 L 259.36677 9.29594" />
    <path d="M 259.36677 269.76815 L 259.36677 145.69629" />
    <path d="M 259.36677 325.77359 L 259.36677 281.19333" />
    <path d="M 285.8 220.72411 L 294.14847 220.72411" />
    <path d="M 303.03603 211.69097 L 296.3 211.69097 L 296.3 214.26486 L 296.31183 214.34551 A 1.5 0.64347 180 0 0 297.8 214.90833 L 300.0702 214.90833" />
    <path d="M 349.3 220.72411 L 360.8 220.72411 L 360.8 184.51608" />
    <path d="M 360.8 164.71867 L 324.24449 164.71867 A 324.3 139.1185 0 0 1 259.36677 245.65776" />
    <path d="M 360.8 164.71867 L 360.8 49.01904" />
    <path d="M 360.8 29.22164 L 324.24449 29.22164 A 324.3 139.1185 0 0 1 321.23876 45.71763" />
    <path d="M 360.8 29.22164 L 360.8 -87.38131" />
    <path d="M 360.8 -107.17871 L 324.24449 -107.17871 A 324.3 139.1185 0 0 1 259.36677 -26.23962" />
    <path d="M 360.8 -107.17871 L 360.8 -170.57797" />
    <path d="M 285.8 220.72411 L 285.8 132.6571" />
    <path d="M 285.8 92.39367 L 285.8 84.77167" />
    <path d="M 285.8 39.94688 L 285.8 -3.74325" />
    <path d="M 285.8 -44.00667 L 285.8 -103.53568" />
    <path d="M -156 195.56739 A 156 66.92102 180 0 0 -6 262.43889" />
    <path d="M 6 262.43889 A 156 66.92102 180 0 0 156 195.56739" />
    <path d="M -374.5 -213.63366 A 374.5 160.65335 180 0 0 374.5 -213.63366" />
    <path d="M -296.3 214.26486 L -296.3 211.69097" />
    <path d="M -296.3 218.69351 L -296.3 214.26486" />
    <path d="M -349.3 232.33113 L -349.3 214.26486 L -349.28817 214.34551 A 1.5 0.64347 180 0 0 -348.38405 214.85755" />
    <path d="M -349.3 213.42894 L -349.3 214.26486" />
    <path d="M -349.47196 213.15463 A 361.8 155.20529 180 0 0 361.8 172.98455" />
    <path d="M -361.8 172.98455 A 361.8 155.20529 180 0 0 -349.47196 213.15463" />
    <path d="M -259.36677 89.47157 A 324.3 139.1185 180 0 0 -275.82358 99.81615" />
    <path d="M -156 51.01924 A 324.3 139.1185 180 0 0 -197.84848 62.75526" />
    <path d="M 197.84848 62.75526 A 324.3 139.1185 180 0 0 156 51.01924" />
    <path d="M 275.82358 99.81615 A 324.3 139.1185 180 0 0 259.36677 89.47157" />
    <path d="M -283.24711 94.39627 A 324.3 139.1185 0 0 1 -259.36677 78.63181" />
    <path d="M -349.47196 202.31487 A 361.8 155.20529 0 0 1 -361.8 162.14478 A 361.8 155.20529 0 0 1 -360.8 150.61325" />
    <path d="M -285.8 66.9752 A 361.8 155.20529 0 0 1 -259.36677 53.93601" />
    <path d="M -197.84848 32.20165 A 361.8 155.20529 0 0 1 -195.74229 31.61597" />
    <path d="M 195.74229 31.61597 A 361.8 155.20529 0 0 1 197.84848 32.20165" />
    <path d="M 259.36677 53.93601 A 361.8 155.20529 0 0 1 269.84078 58.75666" />
    <path d="M 360.8 150.61325 A 361.8 155.20529 0 0 1 361.8 162.14478 L 361.8 172.98455" />
    <path d="M 361.8 162.14478 A 361.8 155.20529 0 0 1 -349.47196 202.31487" />
    <path d="M -313.24975 198.1513 A 324.3 139.1185 0 0 1 -324.24449 164.71867" />
    <path d="M -197.84848 51.9155 A 324.3 139.1185 0 0 1 -158.1259 40.68432" />
    <path d="M 158.1259 40.68432 A 324.3 139.1185 0 0 1 197.84848 51.9155" />
    <path d="M 259.36677 78.63181 A 324.3 139.1185 0 0 1 261.07855 79.61921" />
    <path d="M 277.06971 89.84799 A 324.3 139.1185 0 0 1 283.24711 94.39627" />
    <path d="M 259.36677 269.76815 L 250.88149 273.40817" />
    <path d="M 6 316.92109 L -6 316.92109" />
    <path d="M -6 301.23948 A 324.3 139.1185 0 0 1 -225.03284 262.3196" />
    <path d="M -259.36677 245.65776 A 324.3 139.1185 0 0 1 -313.24975 198.1513" />
    <path d="M -349.47196 77.6576 A 361.8 155.20529 180 0 0 340.34562 90.13887" />
    <path d="M 358.1069 59.60682 A 361.8 155.20529 180 0 0 361.8 37.48751" />
    <path d="M -361.8 37.48751 A 361.8 155.20529 180 0 0 -349.47196 77.6576" />
    <path d="M -259.36677 -46.02546 A 324.3 139.1185 180 0 0 -275.16973 -36.13254" />
    <path d="M 275.16973 -36.13254 A 324.3 139.1185 180 0 0 259.36677 -46.02546" />
    <path d="M -282.6575 -41.55242 A 324.3 139.1185 0 0 1 -259.36677 -56.86522" />
    <path d="M -349.47196 66.81783 A 361.8 155.20529 0 0 1 -361.8 26.64775 L -361.8 37.48751" />
    <path d="M -361.8 26.64775 A 361.8 155.20529 0 0 1 -360.8 15.11622" />
    <path d="M -285.8 -68.52183 A 361.8 155.20529 0 0 1 -259.36677 -81.56103" />
    <path d="M 259.36677 -81.56103 A 361.8 155.20529 0 0 1 285.8 -68.52183" />
    <path d="M 360.8 15.11622 A 361.8 155.20529 0 0 1 361.8 26.64775 L 361.8 37.48751" />
    <path d="M 361.8 26.64775 A 361.8 155.20529 0 0 1 358.09392 48.80571" />
    <path d="M 337.5235 82.54238 A 361.8 155.20529 0 0 1 -349.47196 66.81783" />
    <path d="M -313.24975 62.65427 A 324.3 139.1185 0 0 1 -324.24449 29.22164" />
    <path d="M 259.36677 -56.86522 A 324.3 139.1185 0 0 1 282.6575 -41.55242" />
    <path d="M 305.80103 72.96224 A 324.3 139.1185 0 0 1 259.36677 110.16072" />
    <path d="M 259.36677 134.27111 L 250.88149 137.91114" />
    <path d="M 6 181.42406 L -6 181.42406" />
    <path d="M -6 165.74244 A 324.3 139.1185 0 0 1 -225.03284 126.82256" />
    <path d="M -259.36677 110.16072 A 324.3 139.1185 0 0 1 -313.24975 62.65427" />
    <path d="M -349.47196 -58.74275 A 361.8 155.20529 180 0 0 361.8 -98.91284" />
    <path d="M -361.8 -98.91284 A 361.8 155.20529 180 0 0 -349.47196 -58.74275" />
    <path d="M -349.47196 -69.58251 A 361.8 155.20529 0 0 1 -361.8 -109.7526 L -361.8 -98.91284" />
    <path d="M -361.8 -109.7526 A 361.8 155.20529 0 0 1 -360.8 -121.28413" />
    <path d="M 360.8 -121.28413 A 361.8 155.20529 0 0 1 361.8 -109.7526 L 361.8 -98.91284" />
    <path d="M 361.8 -109.7526 A 361.8 155.20529 0 0 1 -349.47196 -69.58251" />
    <path d="M -313.24975 -73.74608 A 324.3 139.1185 0 0 1 -324.24449 -107.17871" />
    <path d="M 259.36677 -2.12923 L 250.88149 1.51079" />
    <path d="M 6 45.02371 L -6 45.02371" />
    <path d="M -6 29.34209 A 324.3 139.1185 0 0 1 -225.03284 -9.57779" />
    <path d="M -259.36677 -26.23962 A 324.3 139.1185 0 0 1 -313.24975 -73.74608" />
    <path d="M -296.30296 214.30526 L -296.3 214.26486" />
    <path d="M -297.8 214.90833 A 1.5 0.64347 180 0 0 -296.30296 214.30526" />
    <path d="M -300.0702 214.90833 L -297.8 214.90833" />
    <path d="M -201.03046 302.63536 L -205.2731 300.81535" />
    <path d="M -255.47768 329.49836 L -238.50712 336.7784 L -238.36582 336.83184 L -238.36582 318.76557" />
    <path d="M -238.50712 336.7784 L -238.50712 318.71213" />
    <path d="M -255.47768 329.49836 L -255.47768 327.44193" />
    <path d="M -259.36677 325.77359 L -250.88149 329.41361" />
    <path d="M -200.96595 302.66483 L -201.03046 302.63536" />
    <path d="M -200.59112 303.09037 A 1.5 0.64347 180 0 0 -200.96595 302.66483" />
    <path d="M -6 336.22413 L -12 336.22413 L -12.188 336.2292 A 1.5 0.64347 180 0 0 -13.5 336.8676 L -13.5 358.31665 A 1.5 0.64347 180 0 0 -12.09419 358.95885 L -12 358.96012 L -6 358.96012" />
    <path d="M 12 336.22413 L 6 336.22413" />
    <path d="M -12 377.02639 L 12 377.02639 L 12.188 377.02131 L 12.188 358.95504 A 1.5 0.64347 180 0 0 13.5 358.31665 L 13.5 336.8676 A 1.5 0.64347 180 0 0 12.09419 336.2254 L 12 336.22413" />
    <path d="M 12 377.02639 L 12 358.96012 L 12.188 358.95504" />
    <path d="M 6 358.96012 L 12 358.96012" />
    <path d="M -12 377.02639 L -12 358.96012" />
    <path d="M -6 372.92653 L 6 372.92653" />
    <path d="M 200.59112 303.09037 A 1.5 0.64347 180 0 0 201.03046 303.54537" />
    <path d="M 238.50712 336.7784 L 255.47768 329.49836 L 255.60225 329.43774 L 255.60225 327.38849" />
    <path d="M 255.47768 329.49836 L 255.47768 327.44193" />
    <path d="M 238.50712 336.7784 L 238.50712 318.71213" />
    <path d="M 250.88149 329.41361 L 259.36677 325.77359" />
    <path d="M 296.3 218.69351 L 296.3 214.26486" />
    <path d="M 349.3 214.26486 L 349.3 213.42894" />
    <path d="M 349.29704 214.30526 L 349.3 214.26486" />
    <path d="M 348.38405 214.85755 A 1.5 0.64347 180 0 0 349.29704 214.30526" />
    <path d="M 349.3 232.33113 L 349.3 214.26486" />
    <path d="M -264.81149 -338.07249 A 374.5 160.65335 360 0 1 374.5 -224.47342 L 374.5 -213.63366" />
    <path d="M 374.5 -224.47342 A 374.5 160.65335 360 0 1 -374.5 -224.47342 L -374.5 -213.63366" />
    <path d="M -374.5 -224.47342 A 374.5 160.65335 360 0 1 -264.81149 -338.07249" />
    <path d="M -349.3 232.33113 L -349.28817 232.41178 L -349.28817 214.34551" />
    <path d="M -349.28817 232.41178 A 1.5 0.64347 180 0 0 -347.8 232.9746 L -347.8 215.7417" />
    <path d="M -347.8 232.9746 L -333.68117 232.9746" />
    <path d="M -296.30296 218.69066 L -296.30296 214.30526" />
    <path d="M -255.91702 329.04335 A 1.5 0.64347 180 0 0 -255.54219 329.46889 L -255.54219 327.41426" />
    <path d="M -255.54219 329.46889 L -255.47768 329.49836" />
    <path d="M -238.36582 336.83184 A 1.5 0.64347 180 0 0 -236.3858 336.7784 L -236.3858 318.71213" />
    <path d="M -236.3858 336.7784 L -201.03046 321.61164 L -201.03046 303.54537" />
    <path d="M -201.03046 321.61164 A 1.5 0.64347 180 0 0 -200.59112 321.15664" />
    <path d="M -13.5 376.38292 A 1.5 0.64347 180 0 0 -12.09419 377.02512 L -12.09419 358.95885" />
    <path d="M -12.09419 377.02512 L -12 377.02639" />
    <path d="M 12.188 377.02131 A 1.5 0.64347 180 0 0 13.5 376.38292 L 13.5 358.31665" />
    <path d="M 13.5 354.93387 A 1.5 0.64347 180 0 0 13.31637 354.62537 A 1.5 0.64347 180 1 0 13.5 354.93387 Z" />
    <path d="M -13.5 376.38292 L -13.5 358.31665" />
    <path d="M 201.03046 321.61164 L 236.3858 336.7784 L 236.3858 318.71213" />
    <path d="M 236.3858 336.7784 A 1.5 0.64347 180 0 0 238.43842 336.80608 L 238.43842 318.73981" />
    <path d="M 238.43842 336.80608 L 238.50712 336.7784" />
    <path d="M 255.60225 329.43774 A 1.5 0.64347 180 0 0 255.91702 329.04335" />
    <path d="M 200.90589 320.76225 A 1.5 0.64347 180 0 0 200.59112 321.15664" />
    <path d="M 333.68117 232.9746 L 347.8 232.9746 L 347.8 215.7417" />
    <path d="M 347.8 232.9746 A 1.5 0.64347 180 0 0 349.29704 232.37154 L 349.29704 214.30526" />
    <path d="M 349.29704 232.37154 L 349.3 232.33113" />
    <path d="M 296.31183 218.68211 L 296.31183 214.34551" />
    <path d="M -347.98 -224.47342 A 347.98 149.27677 180 0 0 347.98 -224.47342" />
    <path d="M -246.05902 -331.83467 A 347.98 149.27677 360 0 1 347.98 -226.28005 L 347.98 -224.47342" />
    <path d="M 347.98 -226.28005 A 347.98 149.27677 360 0 1 -347.98 -226.28005 L -347.98 -224.47342" />
    <path d="M -347.98 -226.28005 A 347.98 149.27677 360 0 1 -246.05902 -331.83467" />
    <path d="M 320.5 -226.28005 A 320.5 137.48838 360 0 1 -320.5 -226.28005" />
    <path d="M -226.62772 -324.40232 A 320.5 137.48838 360 0 1 320.5 -227.18336 L 320.5 -226.28005" />
    <path d="M 320.5 -227.18336 A 320.5 137.48838 360 0 1 -320.5 -227.18336 L -320.5 -226.28005" />
    <path d="M -320.5 -227.18336 A 320.5 137.48838 360 0 1 -226.62772 -324.40232" />
    <path d="M 260.06513 74.50407 A 14.5 12.30814 220.31305 0 1 262.63412 67.25054 L 297.8622 25.7302" />
    <path d="M 262.63412 67.25054 A 14.5 12.30814 220.31305 0 1 284.74723 86.01248 L 298.27395 70.06968" />
    <path d="M 284.74723 86.01248 A 14.5 12.30814 220.31305 0 1 260.06513 74.50407" />
    <path d="M 319.9753 44.49213 A 14.5 12.30814 40.31305 0 0 297.8622 25.7302" />
    <path d="M 292.01989 41.93037 C 292.03 41.93 292.05 41.93 292.064 41.93708 C 292.08 41.94 292.09 41.94 292.10843 41.94351 C 292.12 41.95 292.14 41.95 292.15317 41.94965 C 292.17 41.95 292.18 41.95 292.19821 41.9555 C 292.21 41.96 292.23 41.96 292.2435 41.96106 C 292.26 41.96 292.27 41.96 292.28904 41.96633 C 292.3 41.97 292.32 41.97 292.33478 41.97132 C 292.35 41.97 292.37 41.97 292.38071 41.97603 C 292.4 41.98 292.43 41.98 292.45123 41.9827 C 292.47 41.98 292.5 41.99 292.52305 41.98883 C 292.55 41.99 292.57 41.99 292.59609 41.99443 C 292.62 42 292.65 42 292.67031 41.9995 C 292.7 42 292.72 42 292.74562 42.00405 C 292.77 42.01 292.8 42.01 292.82193 42.0081 C 292.85 42.01 292.87 42.01 292.89914 42.01166 C 292.93 42.01 292.95 42.01 292.97716 42.01477 C 293.01 42.02 293.03 42.02 293.06209 42.01763 C 293.09 42.02 293.12 42.02 293.14693 42.02 C 293.18 42.02 293.2 42.02 293.23164 42.02193 C 293.26 42.02 293.29 42.02 293.3162 42.02346 C 293.34 42.02 293.37 42.02 293.40057 42.02465 C 293.43 42.02 293.46 42.03 293.48473 42.02552 C 293.51 42.03 293.54 42.03 293.56866 42.02613 C 293.6 42.03 293.62 42.03 293.65234 42.02651 C 293.68 42.03 293.71 42.03 293.73577 42.02669 C 293.76 42.03 293.79 42.03 293.81895 42.02671 C 293.85 42.03 293.87 42.03 293.90187 42.02659 C 293.93 42.03 293.96 42.03 293.98456 42.02635 C 294.09 42.03 294.2 42.03 294.31356 42.02475 C 296.1 42.01 297.76 42.05 299.45496 42.31639" />
    <path d="M 299.91966 63.90434 C 299.92 63.97 299.92 64.04 299.91857 64.1104 C 299.92 64.18 299.92 64.25 299.91531 64.31411 C 299.91 64.38 299.91 64.45 299.90989 64.51535 C 299.91 64.58 299.91 64.65 299.90234 64.71397 C 299.9 64.78 299.9 64.85 299.89267 64.90985 C 299.89 64.97 299.89 65.04 299.88091 65.10287 C 299.88 65.17 299.87 65.23 299.86709 65.29291 C 299.86 65.36 299.86 65.42 299.85126 65.47987 C 299.85 65.54 299.84 65.6 299.83345 65.66363 C 299.83 65.72 299.82 65.78 299.81371 65.84409 C 299.81 65.9 299.8 65.96 299.79208 66.02115 C 299.78 66.08 299.78 66.14 299.76864 66.19472 C 299.76 66.25 299.75 66.31 299.74343 66.36471 C 299.73 66.42 299.73 66.48 299.71651 66.53105 C 299.71 66.59 299.7 66.64 299.68797 66.69365 C 299.68 66.75 299.67 66.8 299.65786 66.85244 C 299.64 66.92 299.63 66.99 299.61421 67.06379 C 299.6 67.13 299.58 67.2 299.56785 67.26829 C 299.55 67.34 299.54 67.4 299.51892 67.46602 C 299.5 67.53 299.49 67.59 299.46755 67.65708 C 299.45 67.72 299.43 67.78 299.41388 67.84155 C 299.4 67.9 299.38 67.96 299.35803 68.01955 C 299.34 68.08 299.32 68.14 299.30014 68.19116 C 299.28 68.25 299.26 68.3 299.24033 68.3565 C 299.22 68.4 299.21 68.44 299.19303 68.47965 C 299.18 68.52 299.16 68.56 299.1447 68.59924 C 299.11 68.68 299.08 68.75 299.04513 68.82802 C 298.98 68.98 298.91 69.12 298.83547 69.2459 C 298.69 69.51 298.54 69.74 298.38169 69.93757 C 298.35 69.98 298.31 70.03 298.27395 70.06968" />
    <path d="M 290.58953 43.61622 C 290.61 43.62 290.63 43.62 290.65005 43.62626 C 290.67 43.63 290.69 43.63 290.70981 43.63735 C 290.73 43.64 290.75 43.65 290.76877 43.64947 C 290.79 43.65 290.81 43.66 290.8269 43.66262 C 290.85 43.67 290.87 43.67 290.88417 43.67675 C 290.9 43.68 290.92 43.69 290.94055 43.69184 C 290.96 43.7 290.98 43.7 290.996 43.70784 C 291.01 43.71 291.03 43.72 291.0505 43.72472 C 291.07 43.73 291.09 43.74 291.11108 43.74483 C 291.13 43.75 291.15 43.76 291.17061 43.76602 C 291.19 43.77 291.21 43.78 291.22916 43.78825 C 291.25 43.8 291.27 43.8 291.28681 43.8115 C 291.31 43.82 291.32 43.83 291.34363 43.83575 C 291.36 43.84 291.38 43.85 291.39966 43.86098 C 291.42 43.87 291.44 43.88 291.45497 43.88716 C 291.47 43.9 291.49 43.91 291.50962 43.91429 C 291.53 43.92 291.55 43.94 291.57177 43.94666 C 291.59 43.96 291.61 43.97 291.63266 43.97995 C 291.65 43.99 291.67 44 291.69236 44.01408 C 291.71 44.03 291.73 44.04 291.75092 44.049 C 291.77 44.06 291.79 44.07 291.8084 44.08465 C 291.83 44.1 291.85 44.11 291.86485 44.12098 C 291.88 44.13 291.9 44.15 291.92033 44.15793 C 291.94 44.17 291.96 44.18 291.97487 44.19547 C 292.01 44.22 292.05 44.25 292.0814 44.27216 C 292.12 44.3 292.15 44.32 292.18486 44.35083 C 292.25 44.4 292.32 44.46 292.38449 44.5139 C 293.09 45.13 293.69 45.86 294.27431 46.66694 C 294.79 47.39 295.29 48.17 295.76773 49.04015 C 297.58 52.36 299.77 57.53 299.91966 63.90434" />
    <path d="M 292.01989 41.93037 A 14.65 4.52614 278.8743 0 0 290.58953 43.61622" />
    <path d="M 337.04219 75.33844 A 27 8.34169 278.8743 0 0 342.11152 91.13125" />
    <path d="M 350.44195 37.77768 A 27 8.34169 278.8743 0 0 337.04219 75.33844" />
    <path d="M 339.86126 75.7786 A 27 8.34169 98.8743 0 1 353.26102 38.21784 L 350.44195 37.77768" />
    <path d="M 353.26102 38.21784 A 27 8.34169 98.8743 0 1 344.93059 91.57141 L 342.11152 91.13125" />
    <path d="M 344.93059 91.57141 A 27 8.34169 98.8743 0 1 339.86126 75.7786" />
    <path d="M -297.8 217.22441 L -297.8 214.90833" />
    <path d="M 297.8 217.22441 L 297.8 214.90833" />
    <path d="M -156 -45.65545 L -156 12.21271" />
    <path d="M -156 41.1238 L -156 148.61305" />
    <path d="M -156 177.52415 L -156 195.56739" />
    <path d="M 156 -45.65545 L 156 12.21271" />
    <path d="M 156 41.1238 L 156 148.61305" />
    <path d="M 156 177.52415 L 156 195.56739" />
    <path d="M -361.8 162.14478 L -361.8 172.98455" />
    <path d="M -255.91702 327.25347 L -255.91702 329.04335" />
    <path d="M 255.91702 327.25347 L 255.91702 329.04335" />
    <path d="M 319.20495 45.40008 L 319.9753 44.49213" />
    <path d="M 341.61364 48.89889 L 299.45496 42.31639" />
    <path d="M 337.09361 77.84814 L 296.98734 71.5861" />
</svg>