<svg version="1.1" xmlns="http://www.w3.org/2000/svg" viewBox="-375.500001 -380.0608058527696 751.000002 756.1639161241324" fill="none" stroke="black" stroke-width="0.6%" vector-effect="non-scaling-stroke">
    <path d="M -361.8 177.75827 A 361.8 152.41962 180 0 0 361.8 177.75827" />
    <path d="M -273.42922 104.29695 A 324.3 136.62157 360 0 1 -259.36677 95.74421" />
    <path d="M -197.84848 69.50741 A 324.3 136.62157 360 0 1 -156 57.98204" />
    <path d="M 156 57.98204 A 324.3 136.62157 360 0 1 197.84848 69.50741" />
    <path d="M 259.36677 95.74421 A 324.3 136.62157 360 0 1 273.42922 104.29695" />
    <path d="M -156 47.09888 A 324.3 136.62157 180 0 0 -197.84848 58.62426" />
    <path d="M -197.84848 39.26423 A 361.8 152.41962 360 0 1 -184.74231 35.82373" />
    <path d="M 184.74231 35.82373 A 361.8 152.41962 360 0 1 197.84848 39.26423" />
    <path d="M 259.36677 60.6085 A 361.8 152.41962 360 0 1 285.8 73.41366" />
    <path d="M 360.8 155.55055 A 361.8 152.41962 360 0 1 361.8 166.87511 A 361.8 152.41962 360 0 1 -361.8 166.87511 A 361.8 152.41962 360 0 1 -360.8 155.55055" />
    <path d="M -285.8 73.41366 A 361.8 152.41962 360 0 1 -259.36677 60.6085" />
    <path d="M 259.36677 272.56682 L 250.88149 276.14151 L 225.03284 265.25196" />
    <path d="M 6 303.47329 A 324.3 136.62157 180 0 0 225.03284 265.25196" />
    <path d="M 6 318.87345 L -6 318.87345 L -6 194.11744" />
    <path d="M -225.03284 265.25196 A 324.3 136.62157 180 0 0 -6 303.47329" />
    <path d="M -225.03284 265.25196 L -250.88149 276.14151 L -259.36677 272.56682 L -259.36677 147.9854" />
    <path d="M -324.24449 169.4028 A 324.3 136.62157 180 0 0 -259.36677 248.88917" />
    <path d="M -324.24449 169.4028 L -360.8 169.4028 L -360.8 53.04334" />
    <path d="M -259.36677 84.86105 A 324.3 136.62157 180 0 0 -281.24976 98.85537" />
    <path d="M 197.84848 58.62426 A 324.3 136.62157 180 0 0 156 47.09888" />
    <path d="M 281.24976 98.85537 A 324.3 136.62157 180 0 0 259.36677 84.86105" />
    <path d="M 360.8 169.4028 L 324.24449 169.4028" />
    <path d="M 259.36677 248.88917 A 324.3 136.62157 180 0 0 324.24449 169.4028" />
    <path d="M -361.8 41.71878 A 361.8 152.41962 180 0 0 361.8 41.71878" />
    <path d="M -272.73977 -32.19601 A 324.3 136.62157 360 0 1 -259.36677 -40.29528" />
    <path d="M -197.84848 -66.53208 A 324.3 136.62157 360 0 1 -179.74499 -71.99774" />
    <path d="M 179.74499 -71.99774 A 324.3 136.62157 360 0 1 197.84848 -66.53208" />
    <path d="M 259.36677 -40.29528 A 324.3 136.62157 360 0 1 272.73977 -32.19601" />
    <path d="M 259.36677 -75.431 A 361.8 152.41962 360 0 1 285.8 -62.62583" />
    <path d="M 360.8 19.51106 A 361.8 152.41962 360 0 1 361.8 30.83562 A 361.8 152.41962 360 0 1 -361.8 30.83562 A 361.8 152.41962 360 0 1 -360.8 19.51106" />
    <path d="M -285.8 -62.62583 A 361.8 152.41962 360 0 1 -259.36677 -75.431" />
    <path d="M 259.36677 136.52733 L 250.88149 140.10202 L 225.03284 129.21246" />
    <path d="M 6 167.4338 A 324.3 136.62157 180 0 0 225.03284 129.21246" />
    <path d="M 6 182.83396 L -6 182.83396 L -6 57.17101" />
    <path d="M -225.03284 129.21246 A 324.3 136.62157 180 0 0 -6 167.4338" />
    <path d="M -225.03284 129.21246 L -250.88149 140.10202 L -250.88149 14.59495" />
    <path d="M -250.88149 140.10202 L -259.36677 136.52733 L -259.36677 11.03897" />
    <path d="M -324.24449 33.36331 A 324.3 136.62157 180 0 0 -259.36677 112.84968" />
    <path d="M -324.24449 33.36331 L -360.8 33.36331 L -360.8 -83.90309" />
    <path d="M -259.36677 -51.17844 A 324.3 136.62157 180 0 0 -280.62908 -37.63759" />
    <path d="M 280.62908 -37.63759 A 324.3 136.62157 180 0 0 259.36677 -51.17844" />
    <path d="M 360.8 33.36331 L 324.24449 33.36331" />
    <path d="M 259.36677 112.84968 A 324.3 136.62157 180 0 0 324.24449 33.36331" />
    <path d="M -361.8 -95.22765 A 361.8 152.41962 180 0 0 361.8 -95.22765" />
    <path d="M 360.8 -117.43536 A 361.8 152.41962 360 0 1 361.8 -106.11081 L 361.8 -95.22765" />
    <path d="M 361.8 -106.11081 A 361.8 152.41962 360 0 1 -361.8 -106.11081 L -361.8 -95.22765" />
    <path d="M -361.8 -106.11081 A 361.8 152.41962 360 0 1 -360.8 -117.43536" />
    <path d="M 259.36677 -0.4191 L 250.88149 3.1556 L 250.88149 -93.27278" />
    <path d="M 250.88149 3.1556 L 225.03284 -7.73396" />
    <path d="M 6 30.48738 A 324.3 136.62157 180 0 0 225.03284 -7.73396" />
    <path d="M 6 45.88753 L -6 45.88753 L -6 -52.65811" />
    <path d="M -225.03284 -7.73396 A 324.3 136.62157 180 0 0 -6 30.48738" />
    <path d="M -225.03284 -7.73396 L -250.88149 3.1556 L -250.88149 -93.27278" />
    <path d="M -250.88149 3.1556 L -259.36677 -0.4191 L -259.36677 -96.60005" />
    <path d="M -324.24449 -103.58312 A 324.3 136.62157 180 0 0 -259.36677 -24.09675" />
    <path d="M -324.24449 -103.58312 L -360.8 -103.58312 L -360.8 -168.12484" />
    <path d="M 360.8 -103.58312 L 324.24449 -103.58312" />
    <path d="M 259.36677 -24.09675 A 324.3 136.62157 180 0 0 324.24449 -103.58312" />
    <path d="M -374.5 -210.40775 A 374.5 157.76989 180 0 0 374.5 -210.40775" />
    <path d="M -153.8335 -66.56281 A 320.5 135.0207 180 0 0 -6 -50.01668" />
    <path d="M 6 -50.01668 A 320.5 135.0207 180 0 0 153.8335 -66.56281" />
    <path d="M 6 45.88753 L 6 -52.65811" />
    <path d="M 6 182.83396 L 6 57.17101" />
    <path d="M 6 318.87345 L 6 194.11744" />
    <path d="M 6 375.10311 L 6 330.15693" />
    <path d="M -6 375.10311 L 6 375.10311" />
    <path d="M -6 375.10311 L -6 330.15693" />
    <path d="M -250.88149 332.37117 L -197.84848 310.02935 L -197.84848 305.36915" />
    <path d="M -197.84848 275.12597 L -197.84848 169.32966" />
    <path d="M -197.84848 139.08648 L -197.84848 32.38323" />
    <path d="M -197.84848 2.14005 L -197.84848 -76.45203" />
    <path d="M -250.88149 276.14151 L -250.88149 151.54138" />
    <path d="M -250.88149 332.37117 L -250.88149 287.58087" />
    <path d="M -259.36677 328.79648 L -250.88149 332.37117" />
    <path d="M -259.36677 328.79648 L -259.36677 284.02489" />
    <path d="M -360.8 225.63246 L -343.48991 225.63246" />
    <path d="M -292.77602 225.63246 L -285.8 225.63246 L -285.8 135.18023" />
    <path d="M -285.8 95.40152 L -285.8 -1.76619" />
    <path d="M -285.8 -41.54491 L -285.8 -108.45363" />
    <path d="M -360.8 225.63246 L -360.8 189.08283" />
    <path d="M 360.8 225.63246 L 360.8 189.08283" />
    <path d="M 285.8 225.63246 L 292.77602 225.63246" />
    <path d="M 343.48991 225.63246 L 360.8 225.63246" />
    <path d="M 360.8 169.4028 L 360.8 53.04334" />
    <path d="M 360.8 33.36331 L 360.8 -83.90309" />
    <path d="M 360.8 -103.58312 L 360.8 -168.12484" />
    <path d="M 285.8 225.63246 L 285.8 135.18023" />
    <path d="M 285.8 95.40152 L 285.8 -1.76619" />
    <path d="M 285.8 -41.54491 L 285.8 -108.45363" />
    <path d="M 259.36677 -0.4191 L 259.36677 -96.60005" />
    <path d="M 259.36677 136.52733 L 259.36677 11.03897" />
    <path d="M 259.36677 272.56682 L 259.36677 147.9854" />
    <path d="M 259.36677 328.79648 L 259.36677 284.02489" />
    <path d="M 250.88149 332.37117 L 259.36677 328.79648" />
    <path d="M 250.88149 332.37117 L 250.88149 287.58087" />
    <path d="M 197.84848 310.02935 L 250.88149 332.37117" />
    <path d="M 250.88149 276.14151 L 250.88149 151.54138" />
    <path d="M 250.88149 140.10202 L 250.88149 14.59495" />
    <path d="M 197.84848 310.02935 L 197.84848 305.36915" />
    <path d="M 197.84848 275.12597 L 197.84848 169.32966" />
    <path d="M 197.84848 139.08648 L 197.84848 32.38323" />
    <path d="M 197.84848 2.14005 L 197.84848 -76.45203" />
    <path d="M -264.81149 -332.85107 A 374.5 157.76989 360 0 1 374.5 -221.29091 L 374.5 -210.40775" />
    <path d="M 374.5 -221.29091 A 374.5 157.76989 360 0 1 -374.5 -221.29091 L -374.5 -210.40775" />
    <path d="M -374.5 -221.29091 A 374.5 157.76989 360 0 1 -264.81149 -332.85107" />
    <path d="M 347.98 -221.29091 A 347.98 146.59751 360 0 1 -347.98 -221.29091" />
    <path d="M -246.05902 -326.76486 A 347.98 146.59751 360 0 1 347.98 -223.10477 L 347.98 -221.29091" />
    <path d="M 347.98 -223.10477 A 347.98 146.59751 360 0 1 -347.98 -223.10477 L -347.98 -221.29091" />
    <path d="M -347.98 -223.10477 A 347.98 146.59751 360 0 1 -246.05902 -326.76486" />
    <path d="M -12.07341 -50.08885 A 95 40.02174 180 0 0 -6 -49.84423" />
    <path d="M 6 -49.84423 A 95 40.02174 180 0 0 12.07341 -50.08885" />
    <path d="M 143.84855 -64.35659 A 156 65.7199 360 0 1 6 -24.11479" />
    <path d="M -6 -24.11479 A 156 65.7199 360 0 1 -143.84855 -64.35659" />
    <path d="M -156 200.43152 A 156 65.7199 180 0 0 -6 266.1028" />
    <path d="M 6 266.1028 A 156 65.7199 180 0 0 156 200.43152" />
    <path d="M -361.8 166.87511 L -361.8 177.75827" />
    <path d="M 361.8 166.87511 L 361.8 177.75827" />
    <path d="M -361.8 30.83562 L -361.8 41.71878" />
    <path d="M 361.8 30.83562 L 361.8 41.71878" />
    <path d="M -156 -66.97751 L -156 13.66543" />
    <path d="M -156 42.29557 L -156 150.61185" />
    <path d="M -156 179.24199 L -156 200.43152" />
    <path d="M 156 -66.97751 L 156 13.66543" />
    <path d="M 156 42.29557 L 156 150.61185" />
    <path d="M 156 179.24199 L 156 200.43152" />
</svg>