<svg version="1.1" xmlns="http://www.w3.org/2000/svg" viewBox="-376.0000009999999 -380.14422172394484 752.000002 756.7586537286563" fill="none" stroke="black" stroke-width="0.6%" vector-effect="non-scaling-stroke">
    <path d="M 198.90914 310.43088 L 251.94215 332.74693 L 251.94215 -93.58033" />
    <path d="M 198.90914 310.43088 L 198.90914 305.22531" />
    <path d="M 198.90914 274.96373 L 198.90914 169.15197" />
    <path d="M 198.90914 138.89039 L 198.90914 33.07863" />
    <path d="M 198.90914 2.81705 L 198.90914 -76.68943" />
    <path d="M 251.90701 140.41516 L 251.90701 151.30102" />
    <path d="M 251.90701 140.41516 L 225.38645 129.25543" />
    <path d="M 251.90701 276.4885 L 251.90701 287.37436" />
    <path d="M 251.90701 276.4885 L 225.38645 265.32877" />
    <path d="M 251.94215 332.74693 L 260.42743 329.17636 L 260.42743 -96.92131" />
    <path d="M 256.18479 13.45718 L 256.18479 2.57132" />
    <path d="M 256.18479 138.64466 L 256.18479 149.53052" />
    <path d="M 256.18479 274.718 L 256.18479 285.60386" />
    <path d="M -375 -210.4601 A 375 157.79826 180 0 0 375 -210.4601" />
    <path d="M 148.93472 -65.6408 A 320.5 134.86491 360 0 1 6 -50.21847" />
    <path d="M -6 -50.21847 A 320.5 134.86491 360 0 1 -148.93472 -65.6408" />
    <path d="M 6 167.4943 A 324.8 136.67433 180 0 0 225.38645 129.25543" />
    <path d="M 6 303.56764 A 324.8 136.67433 180 0 0 225.38645 265.32877" />
    <path d="M -265.16504 -332.92618 A 375 157.79826 360 0 1 375 -221.34597 A 375 157.79826 360 0 1 -375 -221.34597 A 375 157.79826 360 0 1 -265.16504 -332.92618 Z" />
    <path d="M 362.3 225.68505 L 362.3 -169.7413" />
    <path d="M 287.3 225.68505 L 293.24057 225.68505" />
    <path d="M 343.96656 225.68505 L 362.3 225.68505" />
    <path d="M 287.3 225.68505 L 287.3 134.60966" />
    <path d="M 287.3 94.59587 L 287.3 -1.46368" />
    <path d="M 287.3 -41.47747 L 287.3 -109.04605" />
    <path d="M 362.25031 -102.70528 L 362.25031 -91.81941" />
    <path d="M 362.25031 -102.70528 L 324.74458 -102.70528" />
    <path d="M 362.25031 33.36806 L 362.25031 44.25393" />
    <path d="M 362.25031 33.36806 L 324.74458 33.36806" />
    <path d="M 362.25031 169.4414 L 362.25031 180.32727" />
    <path d="M 362.25031 169.4414 L 324.74458 169.4414" />
    <path d="M 6 375.61443 L 6 -52.68204" />
    <path d="M -6 375.61443 L 6 375.61443" />
    <path d="M -6 375.61443 L -6 -52.68204" />
    <path d="M 0 47.22411 L 0 58.10997" />
    <path d="M 0 183.29744 L 0 194.18331" />
    <path d="M 0 319.37078 L 0 330.25665" />
    <path d="M -251.94215 332.74693 L -198.90914 310.43088 L -198.90914 305.22531" />
    <path d="M -198.90914 274.96373 L -198.90914 169.15197" />
    <path d="M -198.90914 138.89039 L -198.90914 33.07863" />
    <path d="M -198.90914 2.81705 L -198.90914 -76.68943" />
    <path d="M -251.94215 332.74693 L -251.94215 -93.58033" />
    <path d="M -225.38645 -6.81791 L -251.90701 4.34182 L -251.90701 15.22768 A 362.3 152.45415 180 0 0 362.25031 -91.81941" />
    <path d="M -225.38645 129.25543 L -251.90701 140.41516 L -251.90701 151.30102 A 362.3 152.45415 180 0 0 251.90701 151.30102" />
    <path d="M -225.38645 265.32877 L -251.90701 276.4885 L -251.90701 287.37436 A 362.3 152.45415 180 0 0 251.90701 287.37436" />
    <path d="M -260.42743 329.17636 L -251.94215 332.74693" />
    <path d="M -260.42743 329.17636 L -260.42743 -96.92131" />
    <path d="M -256.18479 2.57132 L -256.18479 13.45718" />
    <path d="M -256.18479 138.64466 L -256.18479 149.53052" />
    <path d="M -256.18479 274.718 L -256.18479 285.60386" />
    <path d="M -362.3 225.68505 L -343.96656 225.68505" />
    <path d="M -293.24057 225.68505 L -287.3 225.68505 L -287.3 134.60966" />
    <path d="M -287.3 94.59587 L -287.3 -1.46368" />
    <path d="M -287.3 -41.47747 L -287.3 -109.04605" />
    <path d="M -362.3 225.68505 L -362.3 -169.7413" />
    <path d="M -324.74458 -102.70528 L -362.25031 -102.70528 L -362.25031 -91.81941 A 362.3 152.45415 180 0 0 -251.94215 15.21338" />
    <path d="M -324.74458 33.36806 L -362.25031 33.36806 L -362.25031 44.25393 A 362.3 152.45415 180 0 0 -251.94215 151.28672" />
    <path d="M -324.74458 169.4414 L -362.25031 169.4414 L -362.25031 180.32727 A 362.3 152.45415 180 0 0 -251.94215 287.36006" />
    <path d="M 260.42743 -75.14272 A 362.3 152.45415 360 0 1 287.3 -62.03721" />
    <path d="M 362.25031 33.36806 A 362.3 152.45415 360 0 1 251.94215 140.40085" />
    <path d="M 251.90701 140.41516 A 362.3 152.45415 360 0 1 -251.90701 140.41516" />
    <path d="M -251.94215 140.40085 A 362.3 152.45415 360 0 1 -362.25031 33.36806" />
    <path d="M -287.3 -62.03721 A 362.3 152.45415 360 0 1 -260.42743 -75.14272" />
    <path d="M 260.42743 112.51727 A 324.8 136.67433 180 0 0 324.74458 33.36806" />
    <path d="M 281.69614 -37.19338 A 324.8 136.67433 180 0 0 260.42743 -50.83069" />
    <path d="M -260.42743 -50.83069 A 324.8 136.67433 180 0 0 -281.69614 -37.19338" />
    <path d="M -324.74458 33.36806 A 324.8 136.67433 180 0 0 -260.42743 112.51727" />
    <path d="M -225.38645 129.25543 A 324.8 136.67433 180 0 0 -6 167.4943" />
    <path d="M 251.94215 151.28672 A 362.3 152.45415 180 0 0 362.25031 44.25393" />
    <path d="M 260.42743 -39.94482 A 324.8 136.67433 360 0 1 273.86608 -31.75045" />
    <path d="M 180.01726 -72.03263 A 324.8 136.67433 360 0 1 198.90914 -66.31794" />
    <path d="M -198.90914 -66.31794 A 324.8 136.67433 360 0 1 -180.01726 -72.03263" />
    <path d="M -273.86608 -31.75045 A 324.8 136.67433 360 0 1 -260.42743 -39.94482" />
    <path d="M -198.90914 39.49382 A 362.3 152.45415 360 0 1 -186.78923 36.28622" />
    <path d="M 186.78923 36.28622 A 362.3 152.45415 360 0 1 198.90914 39.49382" />
    <path d="M 260.42743 60.93061 A 362.3 152.45415 360 0 1 287.3 74.03612" />
    <path d="M 362.25031 169.4414 A 362.3 152.45415 360 0 1 251.94215 276.47419" />
    <path d="M 251.90701 276.4885 A 362.3 152.45415 360 0 1 -251.90701 276.4885" />
    <path d="M -251.94215 276.47419 A 362.3 152.45415 360 0 1 -362.25031 169.4414" />
    <path d="M -287.3 74.03612 A 362.3 152.45415 360 0 1 -260.42743 60.93061" />
    <path d="M 260.42743 248.59061 A 324.8 136.67433 180 0 0 324.74458 169.4414" />
    <path d="M 281.69614 98.87996 A 324.8 136.67433 180 0 0 260.42743 85.24265" />
    <path d="M 198.90914 58.86953 A 324.8 136.67433 180 0 0 156 47.03866" />
    <path d="M -156 47.03866 A 324.8 136.67433 180 0 0 -198.90914 58.86953" />
    <path d="M -260.42743 85.24265 A 324.8 136.67433 180 0 0 -281.69614 98.87996" />
    <path d="M -324.74458 169.4414 A 324.8 136.67433 180 0 0 -260.42743 248.59061" />
    <path d="M -225.38645 265.32877 A 324.8 136.67433 180 0 0 -6 303.56764" />
    <path d="M 251.94215 287.36006 A 362.3 152.45415 180 0 0 362.25031 180.32727" />
    <path d="M 260.42743 96.12852 A 324.8 136.67433 360 0 1 273.86608 104.32289" />
    <path d="M 156 57.92453 A 324.8 136.67433 360 0 1 198.90914 69.7554" />
    <path d="M -198.90914 69.7554 A 324.8 136.67433 360 0 1 -156 57.92453" />
    <path d="M -273.86608 104.32289 A 324.8 136.67433 360 0 1 -260.42743 96.12852" />
    <path d="M 347.98 -221.34597 A 347.98 146.42836 360 0 1 -347.98 -221.34597" />
    <path d="M -246.05902 -326.70077 A 347.98 146.42836 360 0 1 347.98 -223.16028 L 347.98 -221.34597" />
    <path d="M 347.98 -223.16028 A 347.98 146.42836 360 0 1 -347.98 -223.16028 L -347.98 -221.34597" />
    <path d="M -347.98 -223.16028 A 347.98 146.42836 360 0 1 -246.05902 -326.70077" />
    <path d="M 15.1738 -50.34607 A 95 39.97556 360 0 1 6 -49.91266" />
    <path d="M -6 -49.91266 A 95 39.97556 360 0 1 -15.1738 -50.34607" />
    <path d="M 144.0165 -64.57736 A 156 65.64407 360 0 1 6 -24.2129" />
    <path d="M -6 -24.2129 A 156 65.64407 360 0 1 -144.0165 -64.57736" />
    <path d="M -156 200.48139 A 156 65.64407 180 0 0 -6 266.07689" />
    <path d="M 6 266.07689 A 156 65.64407 180 0 0 156 200.48139" />
    <path d="M 362.25031 -102.70528 A 362.3 152.45415 360 0 1 -251.90701 4.34182" />
    <path d="M -251.94215 4.32751 A 362.3 152.45415 360 0 1 -362.25031 -102.70528" />
    <path d="M 260.42743 -23.55607 A 324.8 136.67433 180 0 0 324.74458 -102.70528" />
    <path d="M -324.74458 -102.70528 A 324.8 136.67433 180 0 0 -260.42743 -23.55607" />
    <path d="M -225.38645 -6.81791 A 324.8 136.67433 180 0 0 -6 31.42096" />
    <path d="M 6 31.42096 A 324.8 136.67433 180 0 0 229.66828 -8.5867" />
    <path d="M -375 -221.34597 L -375 -210.4601" />
    <path d="M 375 -221.34597 L 375 -210.4601" />
    <path d="M -156 -66.96395 L -156 14.64792" />
    <path d="M -156 43.25351 L -156 150.72126" />
    <path d="M -156 179.32685 L -156 200.48139" />
    <path d="M 156 -66.96395 L 156 14.64792" />
    <path d="M 156 43.25351 L 156 150.72126" />
    <path d="M 156 179.32685 L 156 200.48139" />
</svg>