<svg version="1.1" xmlns="http://www.w3.org/2000/svg" viewBox="-375.8264403771779 -380.14262450093156 751.000002 756.056961720901" fill="none" stroke="black" stroke-width="0.6%" vector-effect="non-scaling-stroke">
    <path d="M 249.84022 321.60284 L 180.74482 309.53076" />
    <path d="M 175.65202 281.45485 L 175.65202 174.69298" />
    <path d="M 233.66832 157.7773 L 247.9936 160.28016" />
    <path d="M 207.58805 314.2207 L 250.39516 332.26762 L 250.39516 287.47175" />
    <path d="M 249.84022 321.60284 L 249.84022 287.69587" />
    <path d="M 249.84022 161.05867 L 247.9936 160.28016" />
    <path d="M 249.84022 275.79786 L 249.84022 161.05867 L 232.80923 158.08308" />
    <path d="M 250.39516 276.03182 L 249.84022 275.79786" />
    <path d="M 250.39516 276.03182 L 250.39516 151.41737" />
    <path d="M 250.39516 139.97744 L 224.56244 129.0867" />
    <path d="M 250.39516 139.97744 L 250.39516 14.45597" />
    <path d="M 250.39516 3.01603 L 224.56244 -7.87471" />
    <path d="M 250.39516 3.01603 L 250.39516 -93.43211" />
    <path d="M 197.39484 138.93855 L 197.39484 32.20544" />
    <path d="M 197.39484 1.97714 L 197.39484 -76.64729" />
    <path d="M 213.44912 269.43975 L 249.84022 275.79786" />
    <path d="M 250.39516 332.26762 L 258.88567 328.69695 L 258.88567 323.18322" />
    <path d="M 250.6253 287.37852 L 250.6253 321.74" />
    <path d="M -362.12644 177.6401 A 361.8 152.34232 180 0 0 251.58658 286.98733" />
    <path d="M -273.68703 104.17073 A 324.3 136.55228 0 0 1 -259.84777 95.75441" />
    <path d="M -198.04772 69.40292 A 324.3 136.55228 0 0 1 -156.32644 57.9246" />
    <path d="M 155.67356 57.9246 A 324.3 136.55228 0 0 1 197.39484 69.40292" />
    <path d="M 258.88567 95.58094 A 324.3 136.55228 0 0 1 273.03415 104.17073" />
    <path d="M 280.90859 273.47913 A 361.8 152.34232 180 0 0 361.47356 177.6401" />
    <path d="M 250.6253 275.93503 L 251.58658 276.10298 A 361.8 152.34232 0 0 1 -362.12644 166.75575 A 361.8 152.34232 0 0 1 -361.13007 155.45746" />
    <path d="M 250.6253 275.93503 L 250.39516 276.03182" />
    <path d="M 5.47373 303.28618 A 324.3 136.55228 180 0 0 213.44912 269.43975" />
    <path d="M 5.47373 303.28618 L 5.45121 318.67853 L -6.54879 318.67541 L -6.54879 193.90551" />
    <path d="M -225.50315 265.02429 A 324.3 136.55228 180 0 0 -6.54879 303.28289" />
    <path d="M -225.50315 265.02429 L -251.36772 275.90161 L -259.84777 272.32653 L -259.84777 147.73148" />
    <path d="M -324.57457 169.19801 A 324.3 136.55228 180 0 0 -259.84777 248.64143" />
    <path d="M -324.57457 169.19801 L -361.13007 169.18853 L -361.13007 52.88401" />
    <path d="M -259.84777 84.87006 A 324.3 136.55228 180 0 0 -281.519 98.72856" />
    <path d="M -156.32644 47.04025 A 324.3 136.55228 180 0 0 -198.04772 58.51857" />
    <path d="M 197.39484 58.51857 A 324.3 136.55228 180 0 0 155.67356 47.04025" />
    <path d="M 259.19489 61.18496 L 258.88567 61.31501" />
    <path d="M 280.86612 98.72856 A 324.3 136.55228 180 0 0 258.88567 84.69659" />
    <path d="M 360.47719 164.32297 L 360.46979 169.37578 L 323.91429 169.36629" />
    <path d="M 302.03771 216.12388 A 324.3 136.55228 180 0 0 323.91429 169.36629" />
    <path d="M 302.03771 241.15342 L 280.90859 262.59478 L 280.90859 273.47913" />
    <path d="M -198.04772 39.17462 A 361.8 152.34232 0 0 1 -184.74526 35.69003" />
    <path d="M 184.09238 35.69003 A 361.8 152.34232 0 0 1 197.39484 39.17462" />
    <path d="M 259.19489 60.60998 A 361.8 152.34232 0 0 1 285.46981 73.33966" />
    <path d="M 360.47719 155.45746 A 361.8 152.34232 0 0 1 361.47356 166.75575 A 361.8 152.34232 0 0 1 280.90859 262.59478" />
    <path d="M -286.12269 73.33966 A 361.8 152.34232 0 0 1 -259.84777 60.60998" />
    <path d="M 258.88567 162.18318 L 258.88567 147.86537" />
    <path d="M 250.6253 161.19584 L 250.6253 275.93503" />
    <path d="M 251.39114 160.87376 L 250.6253 161.19584" />
    <path d="M -362.12644 41.58572 A 361.8 152.34232 180 0 0 361.47356 41.58572" />
    <path d="M -272.99656 -32.33716 A 324.3 136.55228 0 0 1 -259.84777 -40.29997" />
    <path d="M -198.04772 -66.65146 A 324.3 136.55228 0 0 1 -179.76672 -72.15845" />
    <path d="M 179.11384 -72.15845 A 324.3 136.55228 0 0 1 197.39484 -66.65146" />
    <path d="M 258.88567 -40.47344 A 324.3 136.55228 0 0 1 272.34368 -32.33716" />
    <path d="M 5.47373 167.23181 A 324.3 136.55228 180 0 0 224.56244 129.0867" />
    <path d="M 259.19489 -75.4444 A 361.8 152.34232 0 0 1 285.46981 -62.71472" />
    <path d="M 360.47719 19.40308 A 361.8 152.34232 0 0 1 361.47356 30.70137 A 361.8 152.34232 0 0 1 -362.12644 30.70137 L -362.12644 41.58572" />
    <path d="M -362.12644 30.70137 A 361.8 152.34232 0 0 1 -361.13007 19.40308" />
    <path d="M -286.12269 -62.71472 A 361.8 152.34232 0 0 1 -259.84777 -75.4444" />
    <path d="M 258.88567 136.40676 L 250.39516 139.97744" />
    <path d="M 5.47373 167.23181 L 5.45121 182.62415 L 5.45121 56.94721" />
    <path d="M 5.45121 182.62415 L -6.54879 182.62104 L -6.54879 56.9441" />
    <path d="M -225.50315 128.96991 A 324.3 136.55228 180 0 0 -6.54879 167.22851" />
    <path d="M -225.50315 128.96991 L -251.36772 139.84723 L -251.36772 14.32642" />
    <path d="M -251.36772 139.84723 L -259.84777 136.27215 L -259.84777 10.77008" />
    <path d="M -324.57457 33.14364 A 324.3 136.55228 180 0 0 -259.84777 112.58706" />
    <path d="M -324.57457 33.14364 L -361.13007 33.13415 L -361.13007 -84.0774" />
    <path d="M -259.84777 -51.18432 A 324.3 136.55228 180 0 0 -280.89743 -37.77933" />
    <path d="M 259.19489 -74.86941 L 258.88567 -74.73937" />
    <path d="M 280.24455 -37.77933 A 324.3 136.55228 180 0 0 258.88567 -51.35779" />
    <path d="M 360.47719 28.26859 L 360.46979 33.3214 L 360.46979 -84.03561" />
    <path d="M 360.46979 33.3214 L 323.91429 33.31192" />
    <path d="M 258.88567 112.76053 A 324.3 136.55228 180 0 0 323.91429 33.31192" />
    <path d="M 258.88567 136.40676 L 258.88567 10.90396" />
    <path d="M -362.12644 -95.37569 A 361.8 152.34232 180 0 0 361.47356 -95.37569" />
    <path d="M 5.47373 30.2704 A 324.3 136.55228 180 0 0 224.56244 -7.87471" />
    <path d="M 360.47719 -117.55832 A 361.8 152.34232 0 0 1 361.47356 -106.26004 L 361.47356 -95.37569" />
    <path d="M 361.47356 -106.26004 A 361.8 152.34232 0 0 1 -362.12644 -106.26004 L -362.12644 -95.37569" />
    <path d="M -362.12644 -106.26004 A 361.8 152.34232 0 0 1 -361.13007 -117.55832" />
    <path d="M 360.47719 -108.69282 L 360.46979 -103.64 L 360.46979 -168.30122" />
    <path d="M 360.46979 -103.64 L 323.91429 -103.64949" />
    <path d="M 258.88567 -24.20088 A 324.3 136.55228 180 0 0 323.91429 -103.64949" />
    <path d="M 258.88567 -0.55464 L 250.39516 3.01603" />
    <path d="M 5.47373 30.2704 L 5.45121 45.66274 L 5.45121 -52.89728" />
    <path d="M 5.45121 45.66274 L -6.54879 45.65963 L -6.54879 -52.90028" />
    <path d="M -225.50315 -7.9915 A 324.3 136.55228 180 0 0 -6.54879 30.26711" />
    <path d="M -225.50315 -7.9915 L -251.36772 2.88583 L -251.36772 -93.55357" />
    <path d="M -251.36772 2.88583 L -259.84777 -0.68925 L -259.84777 -96.88093" />
    <path d="M -324.57457 -103.81777 A 324.3 136.55228 180 0 0 -259.84777 -24.37435" />
    <path d="M -324.57457 -103.81777 L -361.13007 -103.82726 L -361.13007 -168.31242" />
    <path d="M 258.88567 -0.55464 L 258.88567 -96.75592" />
    <path d="M -374.82644 -210.56839 A 374.5 157.68988 180 0 0 374.17356 -210.56839" />
    <path d="M 5.47608 -52.89744 L 5.47608 -50.24147 A 320.5 134.95222 180 0 0 153.89118 -66.86938" />
    <path d="M -154.54406 -66.86938 A 320.5 134.95222 180 0 0 -6.54879 -50.24479" />
    <path d="M 251.39114 160.87376 L 264.70505 163.19992" />
    <path d="M 265.24545 324.29438 L 302.03771 286.95839 L 302.03771 261.29935" />
    <path d="M 265.24545 324.29438 L 250.6253 321.74" />
    <path d="M 265.24545 163.75021 L 265.24545 324.29438" />
    <path d="M 265.24545 163.75021 L 250.6253 161.19584" />
    <path d="M 251.58658 276.10298 L 251.58658 286.98733" />
    <path d="M 5.45121 374.91434 L 5.49743 343.33426 L 5.49743 329.96268" />
    <path d="M 5.49743 303.286 L 5.49743 193.9083" />
    <path d="M 5.49743 167.23163 L 5.49743 56.9469" />
    <path d="M 5.49743 30.27022 L 5.49743 -50.24164" />
    <path d="M 5.45121 318.67853 L 5.45121 193.90861" />
    <path d="M 5.45121 374.91434 L 5.45121 329.96299" />
    <path d="M -6.54879 374.91122 L 5.45121 374.91434" />
    <path d="M -6.54879 374.91122 L -6.54879 329.95989" />
    <path d="M -251.36772 332.13742 L -198.30204 309.82069 L -198.30204 305.15128" />
    <path d="M -198.30204 274.91047 L -198.30204 169.0969" />
    <path d="M -198.30204 138.85609 L -198.30204 32.1355" />
    <path d="M -198.30204 1.89469 L -198.30204 -76.71393" />
    <path d="M -251.36772 275.90161 L -251.36772 151.28783" />
    <path d="M -251.36772 332.13742 L -251.36772 287.3422" />
    <path d="M -259.84777 328.56234 L -251.36772 332.13742" />
    <path d="M -259.84777 328.56234 L -259.84777 283.78586" />
    <path d="M -361.13007 225.42434 L -343.86439 225.42882" />
    <path d="M -293.14918 225.44198 L -286.13008 225.4438 L -286.12269 220.39099 L -286.12269 135.00181" />
    <path d="M -286.13008 225.4438 L -286.13008 134.9978" />
    <path d="M -286.13008 95.23166 L -286.13008 -1.96361" />
    <path d="M -286.13008 -41.72974 L -286.13008 -108.66779" />
    <path d="M -361.13007 225.42434 L -361.13007 188.93838" />
    <path d="M -286.12269 95.23747 L -286.12269 -1.9596" />
    <path d="M -286.12269 -41.72394 L -286.12269 -108.66411" />
    <path d="M -198.04772 136.05973 L -198.04772 32.20544" />
    <path d="M -198.04772 1.97714 L -198.04772 -76.64729" />
    <path d="M 259.19489 112.58706 L 259.19489 95.75441" />
    <path d="M 259.19489 61.18496 L 259.19489 10.77008" />
    <path d="M 259.19489 -24.37435 L 259.19489 -40.29997" />
    <path d="M 259.19489 -74.86941 L 259.19489 -96.88093" />
    <path d="M 360.47719 -108.69282 L 360.47719 -168.31242" />
    <path d="M 360.47719 28.26859 L 360.47719 -84.0774" />
    <path d="M 360.47719 164.32297 L 360.47719 52.88401" />
    <path d="M 360.47719 220.55877 L 360.47719 188.93838" />
    <path d="M 360.46979 225.61159 L 360.47719 220.55877" />
    <path d="M 360.46979 225.61159 L 360.46979 188.98018" />
    <path d="M 343.07136 225.60707 L 360.46979 225.61159" />
    <path d="M 360.46979 169.37578 L 360.46979 52.9258" />
    <path d="M 285.46981 142.1283 L 285.46981 135.00181" />
    <path d="M 285.46981 95.23747 L 285.46981 -1.9596" />
    <path d="M 285.46981 -41.72394 L 285.46981 -108.66411" />
    <path d="M 301.11406 126.25285 L 264.70505 163.19992" />
    <path d="M 302.03771 126.41423 L 265.24545 163.75021" />
    <path d="M 302.03771 241.15342 L 302.03771 126.41423" />
    <path d="M 301.11406 126.25285 L 302.03771 126.41423" />
    <path d="M -264.97468 -333.02502 A 374.5 157.68988 0 0 1 374.17356 -221.45274 L 374.17356 -210.56839" />
    <path d="M 374.17356 -221.45274 A 374.5 157.68988 0 0 1 -374.82644 -221.45274 L -374.82644 -210.56839" />
    <path d="M -374.82644 -221.45274 A 374.5 157.68988 0 0 1 -264.97468 -333.02502" />
    <path d="M -198.30204 136.16669 L -198.04772 136.05973" />
    <path d="M 347.65356 -221.45274 A 347.98 146.52316 0 0 1 -348.30644 -221.45274" />
    <path d="M -246.23377 -326.93815 A 347.98 146.52316 0 0 1 347.65356 -223.2668 L 347.65356 -221.45274" />
    <path d="M 347.65356 -223.2668 A 347.98 146.52316 0 0 1 -348.30644 -223.2668 L -348.30644 -221.45274" />
    <path d="M -348.30644 -223.2668 A 347.98 146.52316 0 0 1 -246.23377 -326.93815" />
    <path d="M 13.19929 -50.33958 A 95 40.00144 0 0 1 5.49743 -50.00731" />
    <path d="M -6.54879 -50.01797 A 95 40.00144 0 0 1 -13.85217 -50.33958" />
    <path d="M 143.59609 -64.59129 A 156 65.68657 0 0 1 5.49743 -24.29273" />
    <path d="M -6.54879 -24.29921 A 156 65.68657 0 0 1 -144.24896 -64.59129" />
    <path d="M -156.32644 200.31583 A 156 65.68657 180 0 0 -6.54879 265.95013" />
    <path d="M 5.49743 265.95661 A 156 65.68657 180 0 0 155.67356 200.31583" />
    <path d="M -362.12644 166.75575 L -362.12644 177.6401" />
    <path d="M 361.47356 166.75575 L 361.47356 177.6401" />
    <path d="M 361.47356 30.70137 L 361.47356 41.58572" />
    <path d="M -156.32644 -67.21089 L -156.32644 13.45546" />
    <path d="M -156.32644 42.07779 L -156.32644 150.41686" />
    <path d="M -156.32644 179.03919 L -156.32644 200.31583" />
    <path d="M 155.67356 -67.21089 L 155.67356 13.45546" />
    <path d="M 155.67356 42.07779 L 155.67356 150.41686" />
    <path d="M 155.67356 179.03919 L 155.67356 200.31583" />
</svg>