<svg version="1.1" xmlns="http://www.w3.org/2000/svg" viewBox="-375.50000100000005 -380.0544981518624 751.0000020000001 756.1516540475106" fill="none" stroke="black" stroke-width="0.6%" vector-effect="non-scaling-stroke">
    <path d="M 197.84848 310.02713 L 250.88149 332.36767 L 250.88149 287.57677" />
    <path d="M 250.88149 276.13731 L 225.03284 265.24838" />
    <path d="M 250.88149 276.13731 L 250.88149 151.5356" />
    <path d="M 250.88149 140.09614 L 225.03284 129.20721" />
    <path d="M 250.88149 140.09614 L 250.88149 15.49442" />
    <path d="M 250.88149 4.05496 L 225.03284 -6.83397" />
    <path d="M 250.88149 4.05496 L 250.88149 -93.2821" />
    <path d="M 197.84848 310.02713 L 197.84848 305.36404" />
    <path d="M 197.84848 275.12183 L 197.84848 169.32286" />
    <path d="M 197.84848 139.08065 L 197.84848 33.28168" />
    <path d="M 197.84848 3.03948 L 197.84848 -76.46231" />
    <path d="M 250.88149 332.36767 L 259.36677 328.79318 L 259.36677 284.021" />
    <path d="M -361.8 177.76047 A 361.8 152.41088 180 0 0 361.8 177.76047" />
    <path d="M -273.42146 104.29824 A 324.3 136.61373 360 0 1 -259.36677 95.75112" />
    <path d="M -197.84848 69.51582 A 324.3 136.61373 360 0 1 -156 57.9911" />
    <path d="M 156 57.9911 A 324.3 136.61373 360 0 1 197.84848 69.51582" />
    <path d="M 259.36677 95.75112 A 324.3 136.61373 360 0 1 273.42146 104.29824" />
    <path d="M 6 303.46753 A 324.3 136.61373 180 0 0 225.03284 265.24838" />
    <path d="M -197.84848 39.27361 A 361.8 152.41088 360 0 1 -186.50697 36.27765" />
    <path d="M 186.50697 36.27765 A 361.8 152.41088 360 0 1 197.84848 39.27361" />
    <path d="M 259.36677 60.61665 A 361.8 152.41088 360 0 1 285.8 73.42108" />
    <path d="M 360.8 155.55327 A 361.8 152.41088 360 0 1 361.8 166.87718 A 361.8 152.41088 360 0 1 -361.8 166.87718 A 361.8 152.41088 360 0 1 -360.8 155.55327" />
    <path d="M -285.8 73.42108 A 361.8 152.41088 360 0 1 -259.36677 60.61665" />
    <path d="M 259.36677 272.56283 L 250.88149 276.13731" />
    <path d="M 6 318.8668 L -6 318.8668 L -6 194.10922" />
    <path d="M -225.03284 265.24838 A 324.3 136.61373 180 0 0 -6 303.46753" />
    <path d="M -225.03284 265.24838 L -250.88149 276.13731 L -259.36677 272.56283 L -259.36677 147.97982" />
    <path d="M -324.24449 169.40472 A 324.3 136.61373 180 0 0 -259.36677 248.88653" />
    <path d="M -324.24449 169.40472 L -360.8 169.40472 L -360.8 53.0432" />
    <path d="M -259.36677 84.86782 A 324.3 136.61373 180 0 0 -281.2433 98.85659" />
    <path d="M -156 47.10781 A 324.3 136.61373 180 0 0 -197.84848 58.63253" />
    <path d="M 197.84848 58.63253 A 324.3 136.61373 180 0 0 156 47.10781" />
    <path d="M 281.2433 98.85659 A 324.3 136.61373 180 0 0 259.36677 84.86782" />
    <path d="M 360.8 169.40472 L 324.24449 169.40472" />
    <path d="M 259.36677 248.88653 A 324.3 136.61373 180 0 0 324.24449 169.40472" />
    <path d="M 259.36677 272.56283 L 259.36677 147.97982" />
    <path d="M -361.8 41.71929 A 361.8 152.41088 180 0 0 361.8 41.71929" />
    <path d="M -273.42146 -31.74294 A 324.3 136.61373 360 0 1 -259.36677 -40.29006" />
    <path d="M -197.84848 -66.52536 A 324.3 136.61373 360 0 1 -179.71059 -72.00035" />
    <path d="M 179.71059 -72.00035 A 324.3 136.61373 360 0 1 197.84848 -66.52536" />
    <path d="M 259.36677 -40.29006 A 324.3 136.61373 360 0 1 273.42146 -31.74294" />
    <path d="M 6 167.42635 A 324.3 136.61373 180 0 0 225.03284 129.20721" />
    <path d="M 259.36677 -75.42452 A 361.8 152.41088 360 0 1 285.8 -62.62009" />
    <path d="M 360.8 19.51209 A 361.8 152.41088 360 0 1 361.8 30.836 L 361.8 41.71929" />
    <path d="M 361.8 30.836 A 361.8 152.41088 360 0 1 -361.8 30.836 L -361.8 41.71929" />
    <path d="M -361.8 30.836 A 361.8 152.41088 360 0 1 -360.8 19.51209" />
    <path d="M -285.8 -62.62009 A 361.8 152.41088 360 0 1 -259.36677 -75.42452" />
    <path d="M 259.36677 136.52165 L 250.88149 140.09614" />
    <path d="M 6 182.82562 L -6 182.82562 L -6 58.06804" />
    <path d="M -225.03284 129.20721 A 324.3 136.61373 180 0 0 -6 167.42635" />
    <path d="M -225.03284 129.20721 L -250.88149 140.09614 L -250.88149 15.49442" />
    <path d="M -250.88149 140.09614 L -259.36677 136.52165 L -259.36677 11.93864" />
    <path d="M -324.24449 33.36354 A 324.3 136.61373 180 0 0 -259.36677 112.84536" />
    <path d="M -324.24449 33.36354 L -360.8 33.36354 L -360.8 -82.99797" />
    <path d="M -259.36677 -51.17336 A 324.3 136.61373 180 0 0 -281.2433 -37.18459" />
    <path d="M 281.2433 -37.18459 A 324.3 136.61373 180 0 0 259.36677 -51.17336" />
    <path d="M 360.8 33.36354 L 324.24449 33.36354" />
    <path d="M 259.36677 112.84536 A 324.3 136.61373 180 0 0 324.24449 33.36354" />
    <path d="M 259.36677 136.52165 L 259.36677 11.93864" />
    <path d="M -361.8 -94.32188 A 361.8 152.41088 180 0 0 361.8 -94.32188" />
    <path d="M 6 31.38517 A 324.3 136.61373 180 0 0 225.03284 -6.83397" />
    <path d="M 360.8 -116.52909 A 361.8 152.41088 360 0 1 361.8 -105.20518 L 361.8 -94.32188" />
    <path d="M 361.8 -105.20518 A 361.8 152.41088 360 0 1 -361.8 -105.20518 L -361.8 -94.32188" />
    <path d="M -361.8 -105.20518 A 361.8 152.41088 360 0 1 -360.8 -116.52909" />
    <path d="M 259.36677 0.48047 L 250.88149 4.05496" />
    <path d="M 6 46.78445 L -6 46.78445 L -6 -52.66975" />
    <path d="M -225.03284 -6.83397 A 324.3 136.61373 180 0 0 -6 31.38517" />
    <path d="M -225.03284 -6.83397 L -250.88149 4.05496 L -250.88149 -93.2821" />
    <path d="M -250.88149 4.05496 L -259.36677 0.48047 L -259.36677 -96.60918" />
    <path d="M -324.24449 -102.67763 A 324.3 136.61373 180 0 0 -259.36677 -23.19582" />
    <path d="M -324.24449 -102.67763 L -360.8 -102.67763 L -360.8 -168.12987" />
    <path d="M 360.8 -102.67763 L 324.24449 -102.67763" />
    <path d="M 259.36677 -23.19582 A 324.3 136.61373 180 0 0 324.24449 -102.67763" />
    <path d="M 259.36677 0.48047 L 259.36677 -96.60918" />
    <path d="M -374.5 -210.41035 A 374.5 157.76085 180 0 0 374.5 -210.41035" />
    <path d="M 153.87699 -66.58192 A 320.5 135.01296 360 0 1 6 -50.02671" />
    <path d="M -6 -50.02671 A 320.5 135.01296 360 0 1 -153.87699 -66.58192" />
    <path d="M 6 46.78445 L 6 -52.66975" />
    <path d="M 6 182.82562 L 6 58.06804" />
    <path d="M 6 318.8668 L 6 194.10922" />
    <path d="M 6 375.09715 L 6 330.15039" />
    <path d="M -6 375.09715 L 6 375.09715" />
    <path d="M -6 375.09715 L -6 330.15039" />
    <path d="M -250.88149 332.36767 L -197.84848 310.02713 L -197.84848 305.36404" />
    <path d="M -197.84848 275.12183 L -197.84848 169.32286" />
    <path d="M -197.84848 139.08065 L -197.84848 33.28168" />
    <path d="M -197.84848 3.03948 L -197.84848 -76.46231" />
    <path d="M -250.88149 276.13731 L -250.88149 151.5356" />
    <path d="M -250.88149 332.36767 L -250.88149 287.57677" />
    <path d="M -259.36677 328.79318 L -250.88149 332.36767" />
    <path d="M -259.36677 328.79318 L -259.36677 284.021" />
    <path d="M -360.8 225.63507 L -343.48743 225.63507" />
    <path d="M -292.77159 225.63507 L -285.8 225.63507 L -285.8 135.17539" />
    <path d="M -285.8 95.3982 L -285.8 -0.86579" />
    <path d="M -285.8 -40.64298 L -285.8 -108.46208" />
    <path d="M -360.8 225.63507 L -360.8 189.08438" />
    <path d="M 360.8 225.63507 L 360.8 189.08438" />
    <path d="M 285.8 225.63507 L 292.77159 225.63507" />
    <path d="M 343.48743 225.63507 L 360.8 225.63507" />
    <path d="M 360.8 169.40472 L 360.8 53.0432" />
    <path d="M 360.8 33.36354 L 360.8 -82.99797" />
    <path d="M 360.8 -102.67763 L 360.8 -168.12987" />
    <path d="M 285.8 225.63507 L 285.8 135.17539" />
    <path d="M 285.8 95.3982 L 285.8 -0.86579" />
    <path d="M 285.8 -40.64298 L 285.8 -108.46208" />
    <path d="M -264.81149 -332.84741 A 374.5 157.76085 360 0 1 374.5 -221.29365 L 374.5 -210.41035" />
    <path d="M 374.5 -221.29365 A 374.5 157.76085 360 0 1 -374.5 -221.29365 L -374.5 -210.41035" />
    <path d="M -374.5 -221.29365 A 374.5 157.76085 360 0 1 -264.81149 -332.84741" />
    <path d="M 347.98 -221.29365 A 347.98 146.58911 360 0 1 -347.98 -221.29365" />
    <path d="M -246.05902 -326.76168 A 347.98 146.58911 360 0 1 347.98 -223.10753 L 347.98 -221.29365" />
    <path d="M 347.98 -223.10753 A 347.98 146.58911 360 0 1 -347.98 -223.10753 L -347.98 -221.29365" />
    <path d="M -347.98 -223.10753 A 347.98 146.58911 360 0 1 -246.05902 -326.76168" />
    <path d="M 12.24638 -50.10164 A 95 40.01944 360 0 1 6 -49.84763" />
    <path d="M -6 -49.84763 A 95 40.01944 360 0 1 -12.24638 -50.10164" />
    <path d="M 143.85692 -64.36757 A 156 65.71613 360 0 1 6 -24.11967" />
    <path d="M -6 -24.11967 A 156 65.71613 360 0 1 -143.85692 -64.36757" />
    <path d="M -156 200.434 A 156 65.71613 180 0 0 -6 266.10151" />
    <path d="M 6 266.10151 A 156 65.71613 180 0 0 156 200.434" />
    <path d="M -361.8 166.87718 L -361.8 177.76047" />
    <path d="M 361.8 166.87718 L 361.8 177.76047" />
    <path d="M -156 -66.98834 L -156 14.56419" />
    <path d="M -156 43.19345 L -156 150.60537" />
    <path d="M -156 179.23463 L -156 200.434" />
    <path d="M 156 -66.98834 L 156 14.56419" />
    <path d="M 156 43.19345 L 156 150.60537" />
    <path d="M 156 179.23463 L 156 200.434" />
</svg>