<svg version="1.1" xmlns="http://www.w3.org/2000/svg" viewBox="-375.500001 -380.06078565973786 751.000002 756.1638768691992" fill="none" stroke="black" stroke-width="0.6%" vector-effect="non-scaling-stroke">
    <path d="M -361.8 177.75828 A 361.8 152.41959 180 0 0 361.8 177.75828" />
    <path d="M -156 57.98207 A 324.3 136.62154 180 0 0 -197.84848 69.50744" />
    <path d="M 197.84848 69.50744 A 324.3 136.62154 180 0 0 156 57.98207" />
    <path d="M 273.42919 104.29695 A 324.3 136.62154 180 0 0 259.36677 95.74424" />
    <path d="M -259.36677 95.74424 A 324.3 136.62154 180 0 0 -273.42919 104.29695" />
    <path d="M -197.84848 58.62428 A 324.3 136.62154 360 0 1 -156 47.09891" />
    <path d="M -197.84848 39.26426 A 361.8 152.41959 360 0 1 -184.7422 35.82374" />
    <path d="M 184.7422 35.82374 A 361.8 152.41959 360 0 1 197.84848 39.26426" />
    <path d="M 259.36677 60.60852 A 361.8 152.41959 360 0 1 285.8 73.41368" />
    <path d="M 360.8 155.55056 A 361.8 152.41959 360 0 1 361.8 166.87512 A 361.8 152.41959 360 0 1 -361.8 166.87512 A 361.8 152.41959 360 0 1 -360.8 155.55056" />
    <path d="M -285.8 73.41368 A 361.8 152.41959 360 0 1 -259.36677 60.60852" />
    <path d="M 156 47.09891 A 324.3 136.62154 360 0 1 197.84848 58.62428" />
    <path d="M 259.36677 84.86108 A 324.3 136.62154 360 0 1 281.24974 98.85537" />
    <path d="M 360.8 169.40281 L 324.24449 169.40281 A 324.3 136.62154 360 0 1 259.36677 248.88916" />
    <path d="M 259.36677 272.56681 L 250.88149 276.1415 L 225.03284 265.25195 A 324.3 136.62154 360 0 1 6 303.47328" />
    <path d="M 6 318.87343 L -6 318.87343 L -6 194.11741" />
    <path d="M -6 303.47328 A 324.3 136.62154 360 0 1 -225.03284 265.25195 L -250.88149 276.1415 L -259.36677 272.56681 L -259.36677 147.98538" />
    <path d="M -259.36677 248.88916 A 324.3 136.62154 360 0 1 -324.24449 169.40281 L -360.8 169.40281 L -360.8 53.04334" />
    <path d="M -281.24974 98.85537 A 324.3 136.62154 360 0 1 -259.36677 84.86108" />
    <path d="M -361.8 41.71878 A 361.8 152.41959 180 0 0 361.8 41.71878" />
    <path d="M -179.74488 -71.99774 A 324.3 136.62154 180 0 0 -197.84848 -66.53206" />
    <path d="M 197.84848 -66.53206 A 324.3 136.62154 180 0 0 179.74488 -71.99774" />
    <path d="M 272.73975 -32.19602 A 324.3 136.62154 180 0 0 259.36677 -40.29526" />
    <path d="M -259.36677 -40.29526 A 324.3 136.62154 180 0 0 -272.73975 -32.19602" />
    <path d="M 259.36677 -75.43098 A 361.8 152.41959 360 0 1 285.8 -62.62582" />
    <path d="M 360.8 19.51106 A 361.8 152.41959 360 0 1 361.8 30.83562 A 361.8 152.41959 360 0 1 -361.8 30.83562 A 361.8 152.41959 360 0 1 -360.8 19.51106" />
    <path d="M -285.8 -62.62582 A 361.8 152.41959 360 0 1 -259.36677 -75.43098" />
    <path d="M 259.36677 -51.17842 A 324.3 136.62154 360 0 1 280.62906 -37.6376" />
    <path d="M 360.8 33.36331 L 324.24449 33.36331 A 324.3 136.62154 360 0 1 259.36677 112.84966" />
    <path d="M 259.36677 136.52731 L 250.88149 140.102 L 250.88149 14.59493" />
    <path d="M 250.88149 140.102 L 225.03284 129.21245 A 324.3 136.62154 360 0 1 6 167.43378" />
    <path d="M 6 182.83393 L -6 182.83393 L -6 57.17098" />
    <path d="M -6 167.43378 A 324.3 136.62154 360 0 1 -225.03284 129.21245 L -250.88149 140.102 L -250.88149 14.59493" />
    <path d="M -250.88149 140.102 L -259.36677 136.52731 L -259.36677 11.03895" />
    <path d="M -259.36677 112.84966 A 324.3 136.62154 360 0 1 -324.24449 33.36331 L -360.8 33.36331 L -360.8 -83.90309" />
    <path d="M -280.62906 -37.6376 A 324.3 136.62154 360 0 1 -259.36677 -51.17842" />
    <path d="M -361.8 -95.22765 A 361.8 152.41959 180 0 0 361.8 -95.22765" />
    <path d="M 360.8 -117.43537 A 361.8 152.41959 360 0 1 361.8 -106.11081 L 361.8 -95.22765" />
    <path d="M 361.8 -106.11081 A 361.8 152.41959 360 0 1 -361.8 -106.11081 L -361.8 -95.22765" />
    <path d="M -361.8 -106.11081 A 361.8 152.41959 360 0 1 -360.8 -117.43537" />
    <path d="M 360.8 -103.58312 L 324.24449 -103.58312 A 324.3 136.62154 360 0 1 259.36677 -24.09677" />
    <path d="M 259.36677 -0.41912 L 250.88149 3.15557 L 250.88149 -93.27281" />
    <path d="M 250.88149 3.15557 L 225.03284 -7.73398 A 324.3 136.62154 360 0 1 6 30.48735" />
    <path d="M 6 45.8875 L -6 45.8875 L -6 -52.65815" />
    <path d="M -6 30.48735 A 324.3 136.62154 360 0 1 -225.03284 -7.73398 L -250.88149 3.15557 L -250.88149 -93.27281" />
    <path d="M -250.88149 3.15557 L -259.36677 -0.41912 L -259.36677 -96.60008" />
    <path d="M -259.36677 -24.09677 A 324.3 136.62154 360 0 1 -324.24449 -103.58312 L -360.8 -103.58312 L -360.8 -168.12486" />
    <path d="M -374.5 -210.40776 A 374.5 157.76986 180 0 0 374.5 -210.40776" />
    <path d="M -153.83364 -66.56287 A 320.5 135.02067 180 0 0 -6 -50.01671" />
    <path d="M 6 -50.01671 A 320.5 135.02067 180 0 0 153.83364 -66.56287" />
    <path d="M 360.8 225.63247 L 360.8 189.08284" />
    <path d="M 285.8 225.63247 L 292.776 225.63247" />
    <path d="M 343.4899 225.63247 L 360.8 225.63247" />
    <path d="M 360.8 169.40281 L 360.8 53.04334" />
    <path d="M 360.8 33.36331 L 360.8 -83.90309" />
    <path d="M 360.8 -103.58312 L 360.8 -168.12486" />
    <path d="M 285.8 225.63247 L 285.8 135.18022" />
    <path d="M 285.8 95.4015 L 285.8 -1.76621" />
    <path d="M 285.8 -41.54493 L 285.8 -108.45366" />
    <path d="M 259.36677 -0.41912 L 259.36677 -96.60008" />
    <path d="M 259.36677 136.52731 L 259.36677 11.03895" />
    <path d="M 259.36677 272.56681 L 259.36677 147.98538" />
    <path d="M 259.36677 328.79647 L 259.36677 284.02488" />
    <path d="M 250.88149 332.37116 L 259.36677 328.79647" />
    <path d="M 250.88149 332.37116 L 250.88149 287.58086" />
    <path d="M 197.84848 310.02934 L 250.88149 332.37116" />
    <path d="M 250.88149 276.1415 L 250.88149 151.54136" />
    <path d="M 197.84848 310.02934 L 197.84848 305.36914" />
    <path d="M 197.84848 275.12596 L 197.84848 169.32964" />
    <path d="M 197.84848 139.08646 L 197.84848 32.38321" />
    <path d="M 197.84848 2.14003 L 197.84848 -76.45206" />
    <path d="M 6 45.8875 L 6 -52.65815" />
    <path d="M 6 182.83393 L 6 57.17098" />
    <path d="M 6 318.87343 L 6 194.11741" />
    <path d="M 6 375.10309 L 6 330.15691" />
    <path d="M -6 375.10309 L 6 375.10309" />
    <path d="M -6 375.10309 L -6 330.15691" />
    <path d="M -250.88149 332.37116 L -197.84848 310.02934 L -197.84848 305.36914" />
    <path d="M -197.84848 275.12596 L -197.84848 169.32964" />
    <path d="M -197.84848 139.08646 L -197.84848 32.38321" />
    <path d="M -197.84848 2.14003 L -197.84848 -76.45206" />
    <path d="M -250.88149 276.1415 L -250.88149 151.54136" />
    <path d="M -250.88149 332.37116 L -250.88149 287.58086" />
    <path d="M -259.36677 328.79647 L -250.88149 332.37116" />
    <path d="M -259.36677 328.79647 L -259.36677 284.02488" />
    <path d="M -360.8 225.63247 L -343.4899 225.63247" />
    <path d="M -292.776 225.63247 L -285.8 225.63247 L -285.8 135.18022" />
    <path d="M -285.8 95.4015 L -285.8 -1.76621" />
    <path d="M -285.8 -41.54493 L -285.8 -108.45366" />
    <path d="M -360.8 225.63247 L -360.8 189.08284" />
    <path d="M -264.81149 -332.85106 A 374.5 157.76986 360 0 1 374.5 -221.29092 L 374.5 -210.40776" />
    <path d="M 374.5 -221.29092 A 374.5 157.76986 360 0 1 -374.5 -221.29092 L -374.5 -210.40776" />
    <path d="M -374.5 -221.29092 A 374.5 157.76986 360 0 1 -264.81149 -332.85106" />
    <path d="M 347.98 -221.29092 A 347.98 146.59748 360 0 1 -347.98 -221.29092" />
    <path d="M -246.05902 -326.76485 A 347.98 146.59748 360 0 1 347.98 -223.10478 L 347.98 -221.29092" />
    <path d="M 347.98 -223.10478 A 347.98 146.59748 360 0 1 -347.98 -223.10478 L -347.98 -221.29092" />
    <path d="M -347.98 -223.10478 A 347.98 146.59748 360 0 1 -246.05902 -326.76485" />
    <path d="M -12.07397 -50.08889 A 95 40.02173 180 0 0 -6 -49.84424" />
    <path d="M 6 -49.84424 A 95 40.02173 180 0 0 12.07397 -50.08889" />
    <path d="M 143.84857 -64.35663 A 156 65.71989 360 0 1 6 -24.11481" />
    <path d="M -6 -24.11481 A 156 65.71989 360 0 1 -143.84857 -64.35663" />
    <path d="M -156 200.43153 A 156 65.71989 180 0 0 -6 266.10279" />
    <path d="M 6 266.10279 A 156 65.71989 180 0 0 156 200.43153" />
    <path d="M -361.8 166.87512 L -361.8 177.75828" />
    <path d="M 361.8 166.87512 L 361.8 177.75828" />
    <path d="M -361.8 30.83562 L -361.8 41.71878" />
    <path d="M 361.8 30.83562 L 361.8 41.71878" />
    <path d="M -156 -66.97755 L -156 13.6654" />
    <path d="M -156 42.29554 L -156 150.61183" />
    <path d="M -156 179.24197 L -156 200.43153" />
    <path d="M 156 -66.97755 L 156 13.6654" />
    <path d="M 156 42.29554 L 156 150.61183" />
    <path d="M 156 179.24197 L 156 200.43153" />
</svg>